<svg id="Layer_1" data-name="Layer 1" xmlns="http://www.w3.org/2000/svg" viewBox="0 0 20 20"><defs><style>.cls-1{fill:#fff;}</style></defs><path class="cls-1" d="M14.92,11.41l-.47,2.14a1.7,1.7,0,0,1,.35,0A1,1,0,0,1,15.4,15a3.42,3.42,0,0,1-.76.76.31.31,0,0,1-.3-.07.32.32,0,0,1,0-.31,3,3,0,0,1,.41-.38.51.51,0,0,0,.12-.73c-.17-.22-.44-.24-.73,0-.64.47-1.28,1-1.93,1.43a1,1,0,0,1-.41.18,1.43,1.43,0,0,0-.9.44.9.9,0,0,1-1.15.12c-.56-.3-1.11-.63-1.68-.91a7.27,7.27,0,0,0-.83-.25A1.85,1.85,0,0,1,7,15c.11-.08.23-.25.32-.24a3.34,3.34,0,0,1,1,.25c.57.27,1.1.6,1.65.9.38.21.65.16.82-.14s0-.57-.31-.79-.89-.48-1.3-.77a8.58,8.58,0,0,1-1.17-1A2,2,0,0,0,6.1,12.6c-.34.07-.69.15-1,.19-.11,0-.22-.12-.33-.18.08-.1.14-.24.24-.28a2.65,2.65,0,0,1,.6-.13A4.81,4.81,0,0,1,6.3,8.91a3.14,3.14,0,1,1,2.25-5.6c.08.07.18.12.21.21a1.67,1.67,0,0,1,.06.39c-.13,0-.29,0-.37-.05a3.13,3.13,0,0,0-1.33-.68,2.64,2.64,0,1,0,2,1.75c0-.17-.14-.36.09-.45s.32.12.38.3a3.37,3.37,0,0,1,0,2.1,4.81,4.81,0,0,1,2.68.45,3.18,3.18,0,0,1,2.06-2,3,3,0,0,1,2.1.08,3.14,3.14,0,0,1-1.49,6ZM8,10.63c0,.61,0,1.2,0,1.78a.54.54,0,0,0,.14.27,7.32,7.32,0,0,0,2.25,1.69c.42.24.86.47.89,1.07a4,4,0,0,0,2.12-1.38,3.74,3.74,0,0,0,.88-3.13A4.15,4.15,0,0,0,9.54,7.4a.75.75,0,0,0-.44.28,2.76,2.76,0,0,1-1.67,1.1,1.17,1.17,0,0,0-.89.72c-.07.14-.15.29-.21.44A4,4,0,0,0,6.07,12l1.4.13V10.61a1,1,0,0,1-.35,0,.37.37,0,0,1-.2-.24c0-.06.11-.21.18-.21.43,0,.87,0,1.31,0,.07,0,.18.15.19.24s-.11.17-.19.21A1.55,1.55,0,0,1,8,10.63Zm5.05-2.79a2.18,2.18,0,0,1,1.35-1.6c.13,0,.4,0,.45.06s-.07.31-.25.39a1.62,1.62,0,0,0-1.06,1.36.64.64,0,0,0,.1.35c.26.43.53.85.81,1.27a.78.78,0,0,0,.33.27,1.7,1.7,0,0,0,2.07-1.06A1.73,1.73,0,0,0,16,6.72c-.07,0-.17,0-.21-.09a2.27,2.27,0,0,1-.17-.31,1.36,1.36,0,0,1,.33-.14c.07,0,.16.05.24.08a2.25,2.25,0,0,1,1.29,2.35,2.22,2.22,0,0,1-1.94,1.87c-.24,0-.49,0-.74,0-.07.34.07.44.38.45a2.64,2.64,0,0,0,.45-5.26A2.61,2.61,0,0,0,12.72,7.6Z"/><path class="cls-1" d="M4.36,16.07,3,16.42c-.38.11-.75.24-1.14.32-.11,0-.24-.09-.37-.14.08-.11.14-.28.25-.32.67-.21,1.36-.41,2-.59A2,2,0,0,1,5.47,16c.65.43,1.32.83,2,1.28a2,2,0,0,0,1.64.33c.94-.2,1.89-.4,2.84-.54a2.82,2.82,0,0,0,1.35-.77c.16-.13.33-.43.56-.15s-.12.38-.26.53a3.17,3.17,0,0,1-2,.95c-.92.13-1.83.34-2.74.52a1.9,1.9,0,0,1-1.41-.3c-.73-.47-1.45-1-2.19-1.41A6.21,6.21,0,0,0,4.36,16.07Z"/><path class="cls-1" d="M4.4,5.76A2.21,2.21,0,1,1,6.6,8,2.21,2.21,0,0,1,4.4,5.76Zm2.2-1.7A1.73,1.73,0,0,0,4.88,5.78a1.73,1.73,0,1,0,3.46,0A1.72,1.72,0,0,0,6.6,4.06Z"/><path class="cls-1" d="M1.71,13.44c-.05-.06-.18-.14-.19-.23A.33.33,0,0,1,1.7,13c.7-.15,1.41-.28,2.12-.4.07,0,.17.12.25.19-.07.1-.14.26-.23.28-.59.14-1.18.24-1.77.35Z"/><path class="cls-1" d="M11,12.67c-.05.05-.12.17-.19.17a.43.43,0,0,1-.29-.15c-.09-.11-.13-.34-.22-.35a3.54,3.54,0,0,0-.92,0c-.06,0-.12.16-.16.26s-.15.31-.35.24-.18-.23-.12-.4c.27-.69.52-1.38.8-2.06a.44.44,0,0,1,.3-.23.37.37,0,0,1,.29.2c.29.72.56,1.45.84,2.17A1.09,1.09,0,0,1,11,12.67Zm-1.46-.89h.63L9.85,11Z"/><path class="cls-1" d="M12.38,11.86l-.59.83c-.11.15-.26.26-.4.11a.42.42,0,0,1,0-.39,5.25,5.25,0,0,1,.54-.79.27.27,0,0,0,0-.4,3.79,3.79,0,0,1-.46-.67c-.05-.09,0-.25,0-.37.13,0,.29,0,.36.09a6.24,6.24,0,0,1,.52.71c.17-.24.32-.44.46-.65s.22-.27.41-.15.11.27,0,.42-.51.57-.5.85.34.56.54.84l.07.11c.11.14.17.3,0,.42s-.3,0-.41-.15S12.59,12.15,12.38,11.86Z"/><path class="cls-1" d="M15.12,7.84a1.62,1.62,0,0,0,.32.17.66.66,0,0,1,.17,1.21c-.06.06-.08.17-.14.24s-.14.15-.22.15-.16-.07-.23-.13a1.54,1.54,0,0,1-.25-.26c-.07-.1-.12-.22-.19-.33A2.85,2.85,0,0,1,15,8.78c.06,0,.13.05.19,0a1.12,1.12,0,0,0,.25-.11,1.06,1.06,0,0,0-.17-.23,2.75,2.75,0,0,0-.3-.14.56.56,0,0,1-.28-.72A3.92,3.92,0,0,1,15.08,7c.13-.15.28-.07.38.08a3.11,3.11,0,0,1,.23.28c.05.09.12.23.09.31s-.19.1-.3.11a1.24,1.24,0,0,1-.33,0Z"/><path class="cls-1" d="M7,5.29a1.18,1.18,0,0,0-.19-.06l-.25,0a.81.81,0,0,0,.19.18c.71.31.74.69.24,1.29-.28.35-.39.58-.65,0,0-.07-.18-.06-.23-.13A.39.39,0,0,1,6,6.36c0-.07.19-.11.29-.12s.21.07.32.07.17-.07.18-.13S6.7,6,6.65,6a.56.56,0,0,0-.18-.07c-.56-.23-.64-.67-.22-1.1a.88.88,0,0,0,.12-.19s0-.08,0-.09.28-.13.3-.1a4.57,4.57,0,0,1,.47.68S7,5.24,7,5.29Z"/></svg>