<svg id="Layer_1" data-name="Layer 1" xmlns="http://www.w3.org/2000/svg" viewBox="0 0 20 20"><defs><style>.cls-1{fill:#fff;}</style></defs><path class="cls-1" d="M7.78,6.77V6.32H5.62V16.5c0,.7-.25,1-1,1H3.9a.73.73,0,0,1-.72-.71V6.32a3.74,3.74,0,0,1-.39-.05.69.69,0,0,1-.57-.71c0-.29,0-.58,0-.88A.74.74,0,0,1,3,3.87l.15,0a3,3,0,0,1,0-.31.73.73,0,0,1,.72-.64h.88a.75.75,0,0,1,.83.79c0,.05,0,.1,0,.16H7.77c.05-.18,0-.49.29-.44.12,0,.21.25.36.44h6.14c.08-.17,0-.49.29-.44.12,0,.2.24.29.36l-.06.1c.29,0,.58,0,.87,0a.73.73,0,0,1,.82.82c0,.27,0,.55,0,.82A.73.73,0,0,1,16,6.3h-.91v.47h.78c.63,0,.9.27.9.89v8.93c0,.6-.27.87-.86.87H7a.76.76,0,0,1-.86-.86v-9A.78.78,0,0,1,7,6.77Zm0,.5H7c-.42,0-.44,0-.44.43v8.79c0,.46,0,.48.48.48H15.8c.46,0,.48,0,.49-.48q0-4.38,0-8.76a.69.69,0,0,0,0-.25c0-.08-.13-.19-.2-.19-.33,0-.65,0-1,0a3.47,3.47,0,0,1,0,.65c0,.11-.14.21-.22.31-.08-.1-.21-.19-.23-.29a3.52,3.52,0,0,1,0-.65H8.29a3.38,3.38,0,0,1,0,.64c0,.11-.16.2-.24.3-.09-.1-.22-.19-.24-.3A3.65,3.65,0,0,1,7.79,7.27ZM5.12,10.18V7.74c0-1.33,0-2.65,0-4,0-.27-.09-.39-.36-.38H4.25c-.57,0-.57,0-.57.55V16.57c0,.35,0,.39.38.4h.66c.36,0,.4,0,.4-.42ZM8.3,5.78h6.28V4.39H8.3ZM5.64,4.37V5.79H7.77V4.37ZM8.3,6.75h6.28V6.33H8.3Zm6.78-1H16c.18,0,.27-.09.27-.25,0-.32,0-.63,0-.94a.31.31,0,0,0-.18-.23c-.33,0-.67,0-1,0ZM3.16,4.38c-.4,0-.45,0-.46.37v.66c0,.38.09.44.48.35V4.49A.36.36,0,0,0,3.16,4.38Z"/><path class="cls-1" d="M12.38,8.17a.93.93,0,0,1,1.25-.33.7.7,0,0,1,.23.46,5.78,5.78,0,0,1,0,.93.56.56,0,0,0,.22.49c.4.35.36.66-.1.93-.07,0-.11.16-.11.25v2c0,.46-.18.64-.64.64H9.63c-.44,0-.62-.17-.62-.62,0-.67,0-1.34,0-2,0-.15,0-.26-.2-.34a.46.46,0,0,1-.1-.81c.47-.44,1-.87,1.44-1.3L11,7.71a.53.53,0,0,1,.84,0Zm-1.68,4.9c0-.24,0-.45,0-.67a.74.74,0,1,1,1.47,0v.64h1.18V10.69H9.51v2.38ZM11.45,8,9,10.15h4.79Zm.22,5.07a4.24,4.24,0,0,0,0-.72.31.31,0,0,0-.23-.21c-.06,0-.2.12-.21.2a5.9,5.9,0,0,0,0,.73Zm1.68-4V8.26h-.42C12.78,8.67,13.09,8.81,13.35,9Z"/><path class="cls-1" d="M8.54,16.53A1,1,0,0,1,7.6,16a.47.47,0,0,1,.08-.39c.14-.12.27,0,.35.14a.62.62,0,0,0,.89.16.23.23,0,0,0,0-.24,2.26,2.26,0,0,0-.37-.11,2.55,2.55,0,0,1-.73-.27.58.58,0,0,1,0-.95,1.17,1.17,0,0,1,1.44,0,.93.93,0,0,1,.24.46c0,.06-.1.21-.18.23A.32.32,0,0,1,9,14.87a.64.64,0,0,0-.87-.24c-.16.1-.16.23,0,.32a2.55,2.55,0,0,0,.32.07,2.73,2.73,0,0,1,.65.2.6.6,0,0,1,0,1.09A3.07,3.07,0,0,1,8.54,16.53Z"/><path class="cls-1" d="M14.12,15.52V16H15c.17,0,.34,0,.33.25s-.17.24-.34.24H14c-.22,0-.34-.08-.34-.31V14.36a.28.28,0,0,1,.32-.31H15c.17,0,.32,0,.31.25s-.14.25-.31.25h-.87V15H15c.17,0,.35,0,.35.24s-.17.26-.35.26Z"/><path class="cls-1" d="M11.67,16.3s-.1.14-.18.17-.16,0-.24-.08,0-.07-.05-.1c-.18-.37-.32-.45-.73-.37a.24.24,0,0,0-.15.13c-.05.07,0,.18-.1.23a1.77,1.77,0,0,1-.33.19c0-.12-.14-.26-.11-.35.14-.44.31-.86.46-1.28a6.44,6.44,0,0,1,.24-.61.34.34,0,0,1,.24-.16c.06,0,.18.08.21.15.25.65.49,1.29.73,1.94A1.13,1.13,0,0,1,11.67,16.3Z"/><path class="cls-1" d="M12.4,16h.65c.16,0,.31,0,.31.24s-.15.25-.33.25h-.79c-.2,0-.31-.08-.31-.28,0-.63,0-1.25,0-1.88a.36.36,0,0,1,.22-.26c.16,0,.24.11.24.28Z"/><path class="cls-1" d="M4.73,5.08c-.15.11-.24.23-.32.23s-.17-.14-.26-.21c.09-.09.16-.23.25-.25S4.58,5,4.73,5.08Z"/></svg>