<svg id="Layer_1" data-name="Layer 1" xmlns="http://www.w3.org/2000/svg" viewBox="0 0 20 20"><defs><style>.cls-1{fill:#fff;}</style></defs><path class="cls-1" d="M3.05,2.94c0-.24,0-.45,0-.66s.12-.4.41-.4H14.12c.54,0,.55,0,.55.56v9.3l1.55.57c0-.36.23-.42.53-.41s.84,0,1.25,0c.25,0,.36.1.36.35v4.59a.3.3,0,0,1-.34.34c-.47,0-.95,0-1.42,0a1.47,1.47,0,0,1-.42-.14,1.36,1.36,0,0,0-.76.5l0,0c-.27.25-.64,0-.89.15a1.18,1.18,0,0,1-.84.25.63.63,0,0,0-.27,0,2.73,2.73,0,0,1-.75.24c-3.38,0-6.76,0-10.13,0-.5,0-.51,0-.51-.53V3.54c0-.6,0-.6.61-.6Zm10,2.9H11.2c-.46,0-.49,0-.49-.48V3.49H2.55V17.7h9.32c-.77-.87-1.2-1.25-1.43-1.26v.29c0,.42,0,.46-.45.47H8.71c-.27,0-.39-.1-.38-.37,0-.43,0-.86,0-1.29v-1H4.39V14H8.33c0-.6,0-1.16,0-1.72,0-.26.1-.38.37-.37h.93c.87,0,.82-.07.82.78a.08.08,0,0,0,0,0,.4.4,0,0,0,.55-.05,5.55,5.55,0,0,1,1.44-1c.68-.23.66-.63.64-1.15,0-.33,0-.66,0-1ZM3.59,2.94h7.18a.8.8,0,0,1,.51.21c.72.69,1.43,1.4,2.12,2.12a.74.74,0,0,1,.2.49c0,1.73,0,3.47,0,5.21,0,.47,0,.47.5.53V2.43H3.59ZM15.15,16c.12.18.24.34.34.51s.19.22.35.11a.27.27,0,0,0,.08-.42.21.21,0,0,0,0-.06l-2.46-2.45a2.71,2.71,0,0,1-1.47.86,1.47,1.47,0,0,1-1.48-.72v1.93a4.08,4.08,0,0,1,.59.37c.47.45.92.91,1.38,1.37a.58.58,0,0,0,.26.19.37.37,0,0,0,.29-.06s0-.18,0-.25-.23-.36-.36-.57l.42-.28c.12.16.21.31.32.45a2.37,2.37,0,0,0,.35.42c.08.05.24,0,.36,0a1.25,1.25,0,0,0-.05-.29c-.1-.18-.22-.35-.35-.54l.43-.29c.11.17.21.31.31.45a1.63,1.63,0,0,0,.36.42c.07.06.23,0,.35,0a.66.66,0,0,0,0-.28c-.1-.18-.22-.35-.34-.54Zm1-.29.07,0c0-.88,0-1.75,0-2.63,0-.08-.14-.2-.24-.24L13.85,12a1.34,1.34,0,0,0-1.36.21l-1.27.95c-.35.26-.33.51.06.72A1.48,1.48,0,0,0,13,13.36s0,0,0-.06c-.15-.31.16-.33.28-.5Zm-7.3-3.25v4.18h1V12.46Zm8.93,4.19V12.47h-1v4.18ZM11.25,5.29h1.33L11.25,4Z"/><path class="cls-1" d="M9.39,9.28H6.72c-.48,0-.5,0-.5-.52V8a.29.29,0,0,1,.33-.35h5.67c.24,0,.34.12.33.35s0,.57,0,.86-.13.38-.41.38Zm2.62-1H6.76v.49H12Z"/><path class="cls-1" d="M4.65,16.23c.69-.5.71-.5.81.33a.8.8,0,0,1,.93.06,1.57,1.57,0,0,0,.6.07v.56a9.55,9.55,0,0,0-1-.19,1.63,1.63,0,0,0-.62.08c-.37.09-.44.07-.54-.32a2.05,2.05,0,0,1-.27.25c-.1.05-.25.13-.31.09a.42.42,0,0,1-.17-.31c0-.21,0-.44,0-.65s-.16-.22-.25-.32c-.09.11-.24.2-.25.32,0,.31,0,.63,0,1H3.06c0-.38,0-.76,0-1.14a.79.79,0,0,1,.74-.68.81.81,0,0,1,.81.59A2.54,2.54,0,0,1,4.65,16.23Z"/><path class="cls-1" d="M12.54,6.66v.49H6.23V6.66Z"/><path class="cls-1" d="M5.13,5.57c-.21,0-.44.1-.6-.17,0-.05-.18-.08-.26-.05a.31.31,0,0,0-.15.22.38.38,0,0,0,.14.24s.15,0,.22,0a.79.79,0,0,1,.66.61.78.78,0,0,1-.28.8,2.77,2.77,0,0,0-.34.42H4.2l-.72-1c.32,0,.53-.13.7.14a.3.3,0,0,0,.29.06.32.32,0,0,0,.15-.25c0-.08-.12-.17-.2-.22s-.13,0-.19,0a.79.79,0,0,1-.63-.61A.77.77,0,0,1,3.88,5a2.77,2.77,0,0,0,.34-.42h.32l.67.94Z"/><path class="cls-1" d="M7.79,11.94v.48H3.07v-.48Z"/><path class="cls-1" d="M3.07,10.31V9.82H7.26v.49Z"/><path class="cls-1" d="M3.07,13.48V13H7.26v.49Z"/><path class="cls-1" d="M9.9,5.6v.49H6.23V5.6Z"/><path class="cls-1" d="M3.07,11.37v-.49h3.4v.49Z"/><path class="cls-1" d="M6.23,5V4.54H8.84V5Z"/></svg>