<svg id="Layer_1" data-name="Layer 1" xmlns="http://www.w3.org/2000/svg" viewBox="0 0 20 20"><defs><style>.cls-1{fill:#fff;}</style></defs><path class="cls-1" d="M5.83,13.81c0-.24,0-.45,0-.66a.82.82,0,0,1,.85-.9c1.07,0,2.13,0,3.19,0a.82.82,0,0,1,.86.89,6.85,6.85,0,0,1-.1.91.32.32,0,0,0,0,.13c0,.19.1.38.13.58a5.79,5.79,0,0,1,0,.59l.29,0h3a.89.89,0,0,1,1,1v.27a.88.88,0,0,1-1,1c-.87,0-1.75,0-2.62,0s-1.5,0-2.24,0-1.51,0-2.26,0a4.41,4.41,0,0,1-.62-.09s-.11-.05-.15,0a5.28,5.28,0,0,1-1.94.13c-.55,0-1.1,0-1.66,0a.86.86,0,0,1-1-1c0-.29.08-.58.12-.88,0-.07,0-.14,0-.21a6,6,0,0,1,0-1.12.75.75,0,0,1,.82-.61h3.4ZM4,16c-.49,0-1,0-1.49,0-.22,0-.33.08-.31.31a1.5,1.5,0,0,1,0,.3c0,.22.08.3.29.3h3c.2,0,.31-.08.29-.29a1.22,1.22,0,0,1,0-.27c0-.25-.08-.36-.34-.35C5,16,4.52,16,4,16Zm8.51,0H11.28c-.55,0-.54,0-.54.55,0,.25.06.37.33.37,1,0,1.94,0,2.92,0,.34,0,.34-.2.33-.44s0-.49-.32-.48S13,16,12.54,16ZM8.26,13.81H9.52c.57,0,.56,0,.56-.57,0-.24-.08-.34-.33-.34H6.83c-.4,0-.33.25-.34.49s0,.44.34.43S7.78,13.81,8.26,13.81ZM8.3,16H6.9c-.4,0-.41,0-.41.45s0,.46.4.46H9.51c.58,0,.57,0,.57-.56,0-.27-.1-.36-.35-.35C9.25,16,8.77,16,8.3,16ZM4,15.36H5.49c.26,0,.37-.08.34-.34a1.48,1.48,0,0,0,0-.3c-.05-.09-.15-.23-.23-.23H2.47c-.08,0-.19.14-.23.23a1.2,1.2,0,0,0,0,.33c0,.23.07.32.31.31Zm4.25-.88H6.79c-.21,0-.32.06-.3.28s0,.22,0,.33.07.27.25.27H9.83c.19,0,.25-.09.25-.27a1.13,1.13,0,0,1,0-.26c0-.26-.07-.36-.34-.35Z"/><path class="cls-1" d="M9.37,10.6c.48,0,.9,0,1.32,0a1.16,1.16,0,0,1,.55.18,4.18,4.18,0,0,0,5.92-.9.55.55,0,0,1,.39-.23c.27,0,.35.3.16.58a4.69,4.69,0,0,1-2.59,1.86,4.83,4.83,0,0,1-4.06-.62,1.54,1.54,0,0,0-.67-.2c-.48,0-1,0-1.43,0s-.55-.2-.36-.6a1.28,1.28,0,0,1,.11-.24A2.62,2.62,0,0,0,9,8.36a4.76,4.76,0,0,1,3.89-5.69,4.85,4.85,0,0,1,5.59,4,3.4,3.4,0,0,1,.06.46.32.32,0,0,1-.31.39c-.22,0-.33-.14-.35-.36a4.17,4.17,0,0,0-8.29-.29,3.84,3.84,0,0,0,.24,2.09.73.73,0,0,1,0,.69C9.68,9.92,9.55,10.22,9.37,10.6Z"/><path class="cls-1" d="M6.83,7.11c0,1.25,0,2.44,0,3.64,0,.5,0,.55-.54.55H4.38c-.44,0-.5-.06-.5-.5,0-1.09,0-2.19,0-3.29v-.4c-.35,0-.67,0-1,0a.53.53,0,0,1-.38-.18.56.56,0,0,1,.11-.44C3.4,5.56,4.19,4.64,5,3.73c.3-.36.44-.36.73,0,.8.92,1.59,1.85,2.37,2.78a.51.51,0,0,1,.09.44c0,.1-.24.16-.38.17C7.48,7.13,7.17,7.11,6.83,7.11ZM5.35,4.31,3.53,6.44h.38c.56,0,.63.07.63.62v3.56H6.15c0-.1,0-.17,0-.24V6.92c0-.36.12-.47.47-.48h.55Z"/><path class="cls-1" d="M12,10c-.11-.09-.24-.14-.27-.23a.44.44,0,0,1,0-.36c.3-.39.62-.75.93-1.13l2.4-2.84c0-.06.09-.11.13-.16s.32-.25.51-.07.13.35,0,.52q-1.7,2-3.4,4A1.38,1.38,0,0,1,12,10Z"/><path class="cls-1" d="M12.43,7.31a1.18,1.18,0,1,1,0-2.35,1.18,1.18,0,1,1,0,2.35Zm0-.66A.51.51,0,0,0,13,6.11a.5.5,0,0,0-.52-.49.52.52,0,0,0-.53.52A.53.53,0,0,0,12.44,6.65Z"/><path class="cls-1" d="M16.26,8.86a1.2,1.2,0,0,1-2.39,0,1.2,1.2,0,0,1,2.39,0Zm-.66,0a.53.53,0,1,0-1.06,0,.53.53,0,0,0,.52.53A.54.54,0,0,0,15.6,8.86Z"/><path class="cls-1" d="M18.49,8.7c-.14.09-.27.24-.4.24a.4.4,0,0,1-.28-.31.39.39,0,0,1,.27-.3c.13,0,.27.14.4.22Z"/></svg>