<svg id="Layer_1" data-name="Layer 1" xmlns="http://www.w3.org/2000/svg" viewBox="0 0 20 20"><defs><style>.cls-1{fill:#fff;}</style></defs><path class="cls-1" d="M10.33,18.11H3.93c-.42,0-.46,0-.46-.46V10.74a.57.57,0,0,0-.2-.47A4.42,4.42,0,0,1,1.83,5.63,4.46,4.46,0,0,1,5.37,2.26a3.59,3.59,0,0,1,.86-.09h6.3a.82.82,0,0,1,.5.2c.87.85,1.72,1.7,2.57,2.57a.77.77,0,0,1,.2.5c0,2.06,0,4.11,0,6.17,0,.23,0,.35.28.44a1.47,1.47,0,0,1,1,1.42c0,.19,0,.39,0,.58a.69.69,0,0,0,.28.71.81.81,0,0,1,.22.56c0,.65,0,1.29,0,1.93a.78.78,0,0,1-.86.86Zm3.17-.53c0-.75,0-1.48,0-2.22a.9.9,0,0,1,.22-.6A.73.73,0,0,0,14,14c0-.18,0-.36,0-.55A1.52,1.52,0,0,1,15,12c.23-.07.26-.18.26-.38V5.83c0-.11,0-.21,0-.33-.82,0-1.61,0-2.4,0-.31,0-.43-.12-.41-.42s0-.77,0-1.16V2.7h-4a4.65,4.65,0,0,1,2.06,5.91,4.5,4.5,0,0,1-2.15,2.3A4.59,4.59,0,0,1,4,10.82v6.76ZM10.41,6.83a4.12,4.12,0,1,0-4.17,4.08A4.13,4.13,0,0,0,10.41,6.83ZM15.57,15H14.42c-.29,0-.42.09-.41.39,0,.6,0,1.2,0,1.79,0,.27.1.4.37.4.79,0,1.57,0,2.35,0,.25,0,.37-.1.37-.36V15.38c0-.27-.12-.37-.37-.36ZM14.76,5,13,3.22V5Zm.53,7.54c-.82.21-.83.91-.72,2h.72Zm.52,0v2h.75C16.68,13.19,16.5,12.69,15.81,12.52Z"/><path class="cls-1" d="M4.51,13.45V13h7.94v.47Z"/><path class="cls-1" d="M4.51,16v-.48h8V16Z"/><path class="cls-1" d="M4.51,17.06v-.48h6.66v.48Z"/><path class="cls-1" d="M4.51,12.43V12h6.14v.48Z"/><path class="cls-1" d="M8.59,15H4.51v-.47H8.59Z"/><path class="cls-1" d="M14.77,8.58H11.46V8.09h3.31Z"/><path class="cls-1" d="M12.48,7.54V7.07h2.29v.47Z"/><path class="cls-1" d="M4.39,9.63a.86.86,0,0,1-.85-.5.74.74,0,0,1,.17-.88C4.35,7.6,5,7,5.66,6.3l2-2A.81.81,0,0,1,8.9,4.21.8.8,0,0,1,8.82,5.4C7.52,6.7,6.22,8,4.91,9.3A2.55,2.55,0,0,1,4.39,9.63ZM8.65,4.76c-.08-.09-.14-.23-.2-.24a.62.62,0,0,0-.39.11c-1.31,1.29-2.61,2.6-3.91,3.9-.15.15-.26.31-.07.49s.33.06.47-.08L8.46,5A1.69,1.69,0,0,0,8.65,4.76Z"/><path class="cls-1" d="M4.77,4a1,1,0,1,1-1,1A1,1,0,0,1,4.77,4Zm.5,1a.52.52,0,0,0-1,0,.51.51,0,0,0,.51.54A.53.53,0,0,0,5.27,5Z"/><path class="cls-1" d="M8.87,8.61a1,1,0,1,1-1-1A1,1,0,0,1,8.87,8.61Zm-1,.49a.51.51,0,0,0,.51-.51.5.5,0,0,0-.5-.51.51.51,0,0,0-.52.52A.5.5,0,0,0,7.84,9.1Z"/><path class="cls-1" d="M15.71,17.07h-.3c-.12-.31-.24-.58-.34-.87a.46.46,0,0,1,.19-.56.47.47,0,0,1,.62,0,.49.49,0,0,1,.14.61C15.92,16.51,15.82,16.76,15.71,17.07Z"/></svg>