<svg id="Layer_1" data-name="Layer 1" xmlns="http://www.w3.org/2000/svg" viewBox="0 0 20 20"><defs><style>.cls-1{fill:#fff;}</style></defs><path class="cls-1" d="M2.4,13.17c.46.63,2.75.65,3.26,0a2.13,2.13,0,0,0-1.22-.39,1.58,1.58,0,0,0-.31,0c-.18,0-.35-.06-.31-.25a.41.41,0,0,1,.34-.22c.49,0,1,.13,1.51.21V11.35c0-.59.1-.75.65-1l.2-.08c-.14-.47-.32-.93-.41-1.4a5.58,5.58,0,0,1,4-6.41,5.4,5.4,0,0,1,3.67.32c.15.07.34.14.25.36s-.28.14-.45.07a5.07,5.07,0,0,0-7.09,4A4.74,4.74,0,0,0,7,10a.26.26,0,0,0,.31.17,4.32,4.32,0,0,1,1.89.18.87.87,0,0,1,.72,1c0,.34,0,.67,0,1s.07.3.28.36a5,5,0,0,0,5.92-2.68,5,5,0,0,0-1-5.84s-.12-.08-.13-.13a2.71,2.71,0,0,1-.09-.41c.13,0,.32,0,.4.08a5.43,5.43,0,0,1,1.61,2.46,5.62,5.62,0,0,1-4.39,7.12,5.92,5.92,0,0,1-2.54-.18v1.45a17.05,17.05,0,0,1,1.88-.17,4.75,4.75,0,0,1,1.33.3.69.69,0,0,1,.49.75c0,.61,0,1.22,0,1.82a.74.74,0,0,1-.47.74,3.67,3.67,0,0,1-2.11.29A11.22,11.22,0,0,1,9.75,18a.44.44,0,0,0-.28,0,4.09,4.09,0,0,1-3.42,0,.42.42,0,0,0-.31,0,4.12,4.12,0,0,1-3.25.07.78.78,0,0,1-.56-.84c0-1.28,0-2.57,0-3.85a.9.9,0,0,1,.82-.9.32.32,0,0,1,.26.16c0,.07,0,.21-.12.26A3.8,3.8,0,0,1,2.4,13.17Zm10.7,2.17c-.4-.58-2.72-.62-3.22,0C10.3,15.92,12.61,15.94,13.1,15.34ZM6.16,11.05c.54.61,2.8.59,3.2,0C8.72,10.42,6.55,10.51,6.16,11.05Zm3.19,2.77a4.49,4.49,0,0,1-3.19,0c-.07.5,0,.57.4.71a3.77,3.77,0,0,0,2.37,0C9.4,14.4,9.42,14.35,9.35,13.82Zm-3.2-1.09c-.05.53,0,.59.42.73a3.84,3.84,0,0,0,2.37,0c.45-.14.49-.23.41-.72A4.32,4.32,0,0,1,6.15,12.73Zm-.5,1.1a4.52,4.52,0,0,1-3.22,0c-.05.49,0,.56.41.7a3.84,3.84,0,0,0,2.37,0C5.65,14.4,5.69,14.34,5.65,13.83Zm.53,1.08c-.11.43-.07.51.31.65a3.77,3.77,0,0,0,2.48,0c.43-.13.45-.19.38-.69A4.55,4.55,0,0,1,6.18,14.91Zm-3.75,0c-.05.51,0,.57.42.71a3.86,3.86,0,0,0,2.4,0c.43-.14.47-.23.38-.69A4.52,4.52,0,0,1,2.43,14.89ZM6.17,16c-.09.46-.06.53.34.67a3.7,3.7,0,0,0,2.48,0c.41-.13.46-.23.34-.67A4.52,4.52,0,0,1,6.17,16ZM2.43,16c-.05.51,0,.57.41.71a3.86,3.86,0,0,0,2.4,0c.43-.14.47-.21.4-.69A4.5,4.5,0,0,1,2.43,16Zm10.68,0a4.52,4.52,0,0,1-3.22,0c0,.51,0,.57.43.71a3.89,3.89,0,0,0,2.34,0C13.11,16.53,13.14,16.47,13.11,16ZM5.65,17a4.51,4.51,0,0,1-3.22,0c-.06.5,0,.56.43.7a3.89,3.89,0,0,0,2.34,0C5.66,17.59,5.69,17.53,5.65,17Zm.51,0c-.08.46,0,.53.38.67A3.68,3.68,0,0,0,9,17.7c.41-.14.45-.23.35-.67A4.55,4.55,0,0,1,6.16,17Zm3.73,0c0,.52,0,.58.42.72a3.91,3.91,0,0,0,2.37,0c.45-.14.47-.2.43-.71A4.42,4.42,0,0,1,9.89,17ZM6.15,11.67c-.05.5,0,.56.4.7a3.86,3.86,0,0,0,2.4,0c.45-.14.47-.21.4-.7A4.42,4.42,0,0,1,6.15,11.67Z"/><path class="cls-1" d="M13.22,5.79a3,3,0,0,1-.16.26L10.43,9.93c0,.06-.08.14-.14.17a.39.39,0,0,1-.28,0c-.06,0-.08-.17-.08-.27A.58.58,0,0,1,10,9.67l2.63-3.88c.05-.06.08-.14.14-.17a.39.39,0,0,1,.26,0C13.13,5.62,13.17,5.72,13.22,5.79Z"/><path class="cls-1" d="M14,9.21a1,1,0,0,1-.56.89.72.72,0,0,1-.84-.14,1.18,1.18,0,0,1-.34-1.11.89.89,0,0,1,1-.83C13.63,8.06,14,8.51,14,9.21Zm-1.29-.13c0,.32.19.62.41.63s.42-.3.42-.61-.2-.62-.41-.63S12.66,8.76,12.66,9.08Z"/><path class="cls-1" d="M10.87,6.66a1,1,0,0,1-.94,1.06h0c-.48,0-.8-.51-.79-1.14a1,1,0,0,1,.85-1A1,1,0,0,1,10.87,6.66Zm-.48,0C10.38,6.3,10.2,6,10,6s-.4.28-.42.59.19.64.41.65S10.39,7,10.39,6.63Z"/></svg>