<svg id="Layer_1" data-name="Layer 1" xmlns="http://www.w3.org/2000/svg" viewBox="0 0 20 20"><defs><style>.cls-1{fill:#fff;}</style></defs><path class="cls-1" d="M7.51,5a2.22,2.22,0,0,1,.85-1.5,2.16,2.16,0,0,1,2.17-.36c.18.06.41.11.33.36s-.3.14-.48.08a1.79,1.79,0,0,0-2.13.72,1.77,1.77,0,0,0,.23,2.19.66.66,0,0,0,.4.17c.59,0,1.19,0,1.78,0a.6.6,0,0,0,.4-.18,1.74,1.74,0,0,0,.29-2c0-.06-.09-.11-.09-.16s0-.24,0-.36c.12,0,.31,0,.35.13a2.94,2.94,0,0,1,.33.8.35.35,0,0,0,.32.33,4.46,4.46,0,0,1,1.85.94c.14.11.28.24.14.41s-.29.06-.44,0c-.41-.25-.83-.5-1.26-.73a3,3,0,0,0-.53-.16l-.47,1.08a3.85,3.85,0,0,1,.68,0c.12,0,.21.15.31.23-.1.08-.2.23-.3.23-1.61,0-3.21,0-4.82,0-.18,0-.34-.06-.31-.25s.19-.19.31-.22a1.83,1.83,0,0,1,.47,0L7.44,5.53c-.32.08-.71.14-1.07.26a.59.59,0,0,1-.68-.14,2.42,2.42,0,0,0-2-.54c.25.54.47,1,.72,1.55a.65.65,0,0,1,0,.72,11.13,11.13,0,0,0-.59,1.26.6.6,0,0,1-.66.49c-.75,0-.75-.14-.75.78s0,.93.92.95a.64.64,0,0,1,.64.44A4.05,4.05,0,0,0,5.4,13.2a.74.74,0,0,1,.33.66c0,.48,0,1,0,1.44,0,.26.1.36.35.35H7.55c.29,0,.4-.11.38-.39s0-.48,0-.72a.56.56,0,0,1,.6-.58A2.68,2.68,0,0,1,9,14a.3.3,0,0,1,.2.22c0,.07-.11.2-.19.21a4,4,0,0,1-.62,0v.87a.74.74,0,0,1-.81.81H6a.73.73,0,0,1-.79-.81c0-.47,0-.94,0-1.4a.53.53,0,0,0-.17-.36,4.75,4.75,0,0,1-1.59-2,.27.27,0,0,0-.32-.21H2.59a.7.7,0,0,1-.73-.73c0-.38,0-.77,0-1.16s.29-.82.77-.78a.65.65,0,0,0,.81-.59,3.19,3.19,0,0,1,.45-.88.38.38,0,0,0,0-.43c-.23-.48-.46-1-.68-1.44s0-.68.45-.69a3.57,3.57,0,0,1,1.65.21,1.22,1.22,0,0,1,.43.25.67.67,0,0,0,.83.14A6.65,6.65,0,0,1,7.51,5Z"/><path class="cls-1" d="M11.12,14.42h-1c-.16,0-.35,0-.35-.22S10,14,10.17,14H11a.56.56,0,0,1,.62.62c0,.25,0,.5,0,.75s.09.32.31.32h1.57c.24,0,.32-.12.32-.35,0-.64,0-1.27,0-1.91a1,1,0,0,1,.23-.57,4.22,4.22,0,0,0,.61-5.4c-.09-.15-.17-.29,0-.41s.31,0,.39.16c.26.53.5,1.07.76,1.61.3-.08.45-.28.49-.67a.76.76,0,0,1,.85-.78.79.79,0,0,1,.72.86A2.31,2.31,0,0,1,16,10.38c-.21,0-.26.11-.31.31a4.72,4.72,0,0,1-1.25,2.36.71.71,0,0,0-.19.46c0,.58,0,1.16,0,1.75s-.26.86-.85.86H12c-.57,0-.83-.28-.84-.85Zm4.71-4.51A1.77,1.77,0,0,0,17.4,8.16c0-.21-.09-.36-.29-.37s-.3.14-.35.33a2.61,2.61,0,0,1-.31.79,2.48,2.48,0,0,1-.62.45Z"/><path class="cls-1" d="M9.7,4.83c.11,0,.22.09.33.15a.57.57,0,0,1,.15.94,2.74,2.74,0,0,0-.19.34c-.07.09-.14.2-.24.23s-.15-.12-.22-.2a2.23,2.23,0,0,1-.2-.3c-.05-.11-.09-.23-.13-.34l.35-.08.32-.05c-.07-.06-.13-.15-.21-.18-.53-.25-.6-.53-.22-1,.05-.06,0-.18.09-.25s.15-.2.24-.22.15.13.22.21a1.53,1.53,0,0,1,.19.3c.05.1.08.21.12.31a1.31,1.31,0,0,1-.32.1.82.82,0,0,1-.26-.06Z"/><path class="cls-1" d="M5.37,7.84c.11.18.21.28.2.37a.29.29,0,0,1-.22.18.28.28,0,0,1-.21-.2C5.15,8.1,5.25,8,5.37,7.84Z"/></svg>