<svg id="Layer_1" data-name="Layer 1" xmlns="http://www.w3.org/2000/svg" viewBox="0 0 20 20"><defs><style>.cls-1{fill:#fff;}</style></defs><path class="cls-1" d="M4.44,18a.63.63,0,0,0,0,.12c.07.94-.21,1.09-1.11,1.05-.38,0-.77,0-1.16,0a.58.58,0,0,1-.65-.65c0-2.1,0-4.19,0-6.29a.59.59,0,0,1,.65-.65h1.5c.57,0,.76.19.77.76v.43l.33-.17a8.13,8.13,0,0,1,4-1c1.29,0,2.58,0,3.87,0a1.62,1.62,0,0,1,1.7,1c.5-.22,1-.42,1.49-.66.13-.06.21-.25.29-.4s.26-.54.42-.86H5.43a1.77,1.77,0,0,1-1.9-1.88,6.12,6.12,0,0,1,.52-3c.23-.47.52-.92.81-1.43C4.62,4,4.33,3.46,4.09,3a.88.88,0,0,1,0-.64c.12-.25.39-.25.65-.16l.17.06a.74.74,0,0,0,1-.24c.4-.48.66-.44,1,.06A.94.94,0,0,0,7,2.17c.29-.18.57-.5.84-.49s.53.36.84.59l.35-.17a.56.56,0,0,1,.68,0,.57.57,0,0,1,.08.7c-.19.45-.36.91-.56,1.35a.7.7,0,0,0,0,.6.92.92,0,0,0,1.19.67,1.86,1.86,0,0,1,.35,0V5.07c0-.89,0-1.78,0-2.66,0-.34.11-.49.46-.49.87,0,1.73,0,2.6,0,.35,0,.46.15.46.49,0,1.22,0,2.45,0,3.78L15,5.58a.32.32,0,0,1,.53,0c.74.74,1.48,1.47,2.21,2.22.08.08.17.3.13.34a3,3,0,0,1-.54.33V9.56l.06,0c1.07-.21,1.63.35,1.46,1.46a7.79,7.79,0,0,1-5.07,6.46A7.39,7.39,0,0,1,11,18H4.44Zm0-.61.18,0c2.25,0,4.51.05,6.76,0a6.92,6.92,0,0,0,5.16-2.51,7.64,7.64,0,0,0,1.74-4c.05-.34,0-.58-.32-.72s-.51,0-.69.38c-.27.53-.52,1.07-.8,1.59a1,1,0,0,1-.41.38c-.48.23-1,.42-1.46.64a.63.63,0,0,0-.29.29,1.45,1.45,0,0,1-1.51,1.07H8.23v-.58H12.8a.9.9,0,0,0,1-.89.89.89,0,0,0-.94-.86c-1.48,0-3,0-4.45,0a7.14,7.14,0,0,0-3.74,1.19.46.46,0,0,0-.21.33C4.4,14.9,4.41,16.13,4.41,17.39ZM9,5.4c-.17-.53-.2-.55-.72-.55-.81,0-1.61,0-2.41,0A.86.86,0,0,0,5,5.31a5.82,5.82,0,0,0-.84,3.77,1.14,1.14,0,0,0,1.11,1h3V6.31C8.21,5.51,8.21,5.51,9,5.4Zm4.21,3.06c-.22-.12-.5-.19-.52-.29a.78.78,0,0,1,.24-.5c.21-.25.47-.46.68-.71a.73.73,0,0,0,.19-.43c0-1.26,0-2.51,0-3.76a1.6,1.6,0,0,0,0-.23H11.44v7.55h1.72ZM3.8,18.57V12.18H2.09v6.39ZM8.82,6v4.06h2V6h-2ZM6,4.22l-.24-.55.51-.24a4.76,4.76,0,0,0,.32.6.63.63,0,0,0,.34.23c.19.06.31,0,.39-.22s.25-.5.38-.77l.51.24-.34.76a4.12,4.12,0,0,0,.51,0c.11,0,.27,0,.3-.12.21-.46.39-.93.58-1.39-.65.42-1,.08-1.3-.42-.29.19-.56.49-.83.5s-.52-.3-.81-.49c-.35.61-.89.76-1.66.35.27.5.49.86.66,1.25A.47.47,0,0,0,6,4.22ZM16.72,7.76,15.25,6.29,13.78,7.76Zm0,.62H13.77v1.71h.54a.92.92,0,0,0,0-.09V9.13c0-.43.06-.48.49-.48h.7c.54,0,.56,0,.56.55v.89h.58c0-.07,0-.13,0-.19ZM15,9.25v.84h.54V9.25Z"/><path class="cls-1" d="M17.55,2.8v.56H17V2.8h.57Z"/><path class="cls-1" d="M2.08,4.27V3.71h.57v.56H2.08Z"/><path class="cls-1" d="M18.45,3.7H19v.54h-.54Z"/><path class="cls-1" d="M2.08,4.84H1.51V4.27h.55v.59Z"/><path class="cls-1" d="M17,5.12h-.54V4.58H17Z"/><path class="cls-1" d="M2.65,4.84v.57H2.08V4.84h.57Z"/><path class="cls-1" d="M2.65,4.27h.56v.57H2.66V4.26Z"/><path class="cls-1" d="M1.51,6.62h.54v.55H1.51Z"/><path class="cls-1" d="M2.68,1.64h.53v.55H2.68Z"/><path class="cls-1" d="M17,2.23V1.66h.57v.55H17Z"/><path class="cls-1" d="M17,2.8h-.57V2.23H17v.58Z"/><path class="cls-1" d="M17.55,2.23h.56V2.8h-.55V2.23Z"/><path class="cls-1" d="M6.47,7.19h.58c.54,0,.57,0,.57.55V8.1c0,.5,0,.53-.55.56L7,8.92c-.51,0-.51,0-.59-.24-.55-.08-.57-.11-.52-.61H7c.09-.2.07-.31-.17-.3h0c-.28,0-.74,0-.8-.13a2.32,2.32,0,0,1-.09-1.06c0-.09.2-.18.31-.27a1.55,1.55,0,0,0,.31-.23c.19,0,.54-.28.55.21.54,0,.57.08.55.58-.38,0-.76,0-1.14.08A1.7,1.7,0,0,0,6.47,7.19Z"/><path class="cls-1" d="M12.27,7.15c-.28,0-.28,0-.25-.49C12.33,6.6,12.33,6.6,12.27,7.15Z"/><path class="cls-1" d="M12.92,3.09c.42,0,.18.36.26.53C12.85,3.68,12.85,3.68,12.92,3.09Z"/><path class="cls-1" d="M12,3.13c.22-.09.29,0,.27.21s.08.41-.27.31Z"/><path class="cls-1" d="M12.9,4.3c.3-.11.27.08.27.26s0,.36-.27.26Z"/><path class="cls-1" d="M12.89,7.21v-.6c.1,0,.24,0,.25,0a1.42,1.42,0,0,1,0,.46S13,7.17,12.89,7.21Z"/><path class="cls-1" d="M12.29,4.24v.6c-.1,0-.25,0-.25,0a1.42,1.42,0,0,1,0-.46S12.17,4.28,12.29,4.24Z"/><path class="cls-1" d="M12,5.48c.48,0,.19.32.3.55C11.81,6,12.12,5.64,12,5.48Z"/><path class="cls-1" d="M12.89,6.06V5.45c.09,0,.24,0,.24,0a1.42,1.42,0,0,1,0,.46C13.15,6,13,6,12.89,6.06Z"/><path class="cls-1" d="M2.68,13.05h.53v.84H2.68Z"/><path class="cls-1" d="M9.38,7.21v-.6c.1,0,.25,0,.25,0a1.42,1.42,0,0,1,0,.46S9.5,7.17,9.38,7.21Z"/><path class="cls-1" d="M10.51,7.15c-.28,0-.28,0-.24-.49C10.58,6.6,10.58,6.6,10.51,7.15Z"/><path class="cls-1" d="M9.4,7.77c.46,0,.18.37.27.54C9.36,8.34,9.36,8.34,9.4,7.77Z"/><path class="cls-1" d="M10.21,8.38c.13-.24-.15-.57.34-.61C10.46,8,10.74,8.3,10.21,8.38Z"/><path class="cls-1" d="M10.52,9.53c-.46,0-.18-.37-.27-.55C10.56,9,10.56,9,10.52,9.53Z"/><path class="cls-1" d="M9.68,8.92c-.06.26.12.54-.25.59C9.46,9.31,9.18,9,9.68,8.92Z"/></svg>