<svg id="Layer_1" data-name="Layer 1" xmlns="http://www.w3.org/2000/svg" viewBox="0 0 20 20"><defs><style>.cls-1{fill:#fff;}</style></defs><path class="cls-1" d="M4.08,12.31c.73-.42,1.43-.84,2.14-1.23a3.72,3.72,0,0,1,1-.42,2.3,2.3,0,0,1,1,.05c1,.27,2,.59,2.92.89.68.2.92.74.71,1.63.18-.08.33-.14.47-.22l2.79-1.63a2.89,2.89,0,0,1,1.45-.49,1.08,1.08,0,0,1,1.15.8A1.14,1.14,0,0,1,17.24,13q-2.59,1.61-5.2,3.2a2.18,2.18,0,0,1-1.79.26c-1.11-.3-2.23-.58-3.33-.9a.85.85,0,0,0-.87.2c.49,1,.45,1.09-.51,1.64-.12.06-.24.14-.37.2a.66.66,0,0,1-.9-.26Q3,15.22,1.84,13.07a.63.63,0,0,1,.24-.88,8,8,0,0,1,.9-.51.66.66,0,0,1,.89.28Zm1.69,3A.79.79,0,0,0,6,15.2,1.06,1.06,0,0,1,7,15.07c1.11.32,2.24.61,3.36.91a1.63,1.63,0,0,0,1.31-.15L17,12.57a.62.62,0,0,0,.26-.74.51.51,0,0,0-.6-.41,4.67,4.67,0,0,0-1.18.39c-1,.52-1.9,1.09-2.85,1.65a2.12,2.12,0,0,1-1.32.32,7.53,7.53,0,0,1-1-.16c-.52-.13-1-.27-1.55-.44-.1,0-.16-.19-.23-.29a1.94,1.94,0,0,1,.35-.18c.06,0,.15,0,.22,0,.56.14,1.12.3,1.69.41a.49.49,0,0,0,.64-.42.6.6,0,0,0-.47-.67c-.86-.26-1.72-.48-2.56-.79a2,2,0,0,0-1.87.18L4.51,12.66l-.17.13Zm.09,1.24c-.06-.11-.1-.2-.15-.28l-1.92-3.4c-.46-.82-.46-.81-1.27-.35-.23.13-.27.24-.14.48.76,1.3,1.49,2.62,2.23,3.93,0,.07.09.19.15.2a.51.51,0,0,0,.32-.06A2.37,2.37,0,0,0,5.86,16.55Z"/><path class="cls-1" d="M11.86,6.77c0-1.31,0-2.61,0-3.92,0-.37.05-.42.43-.42a4.4,4.4,0,0,1,4.17,4.05,4.35,4.35,0,0,1-3.56,4.58c-1.16.19-1.05.17-1.05-.83C11.86,9.07,11.86,7.92,11.86,6.77Zm.52,2.84a2.84,2.84,0,0,0,0-5.66v.91c.32.3.59.51.81.75s.16.35,0,.43-.27-.08-.38-.16-.22-.22-.39-.37v1c.54.16,1,.41,1,1s-.47.84-1,1Zm0,1a3.8,3.8,0,0,0,0-7.59v.4a3.41,3.41,0,0,1,3.08,3A3.25,3.25,0,0,1,15,8.56a3.4,3.4,0,0,1-2.61,1.61Zm0-3.45V8c.27-.08.47-.18.44-.46A.46.46,0,0,0,12.4,7.13Z"/><path class="cls-1" d="M11.4,6.8v3.91c0,.37-.09.46-.46.43a4.35,4.35,0,0,1-.55-8.64,5,5,0,0,1,.54-.07c.42,0,.47,0,.47.45Zm-.51,2.8c0-.27,0-.55,0-.83a.36.36,0,0,0-.2-.25,1.24,1.24,0,0,1-.74-.68c-.07-.17-.11-.35.11-.44s.27.07.37.21a3.59,3.59,0,0,0,.37.42l.08,0V7c-.46-.15-.85-.38-.88-.91s.38-.91.88-1.09V3.94A2.83,2.83,0,0,0,8.3,7.09,2.8,2.8,0,0,0,10.89,9.6Zm0,.59c-2.06-.58-3-1.61-3.1-3.24a3.3,3.3,0,0,1,.56-2,3.46,3.46,0,0,1,2.54-1.51V3A3.82,3.82,0,0,0,7.32,7.15c.12,1.77,2,3.59,3.55,3.41Zm0-4.62c-.26.08-.41.25-.37.46s.19.28.29.41l.08-.06Z"/><path class="cls-1" d="M3.54,13c-.19.12-.31.26-.41.25A.4.4,0,0,1,2.87,13a.37.37,0,0,1,.27-.26C3.25,12.73,3.36,12.88,3.54,13Z"/></svg>