<svg id="Layer_1" data-name="Layer 1" xmlns="http://www.w3.org/2000/svg" viewBox="0 0 20 20"><defs><style>.cls-1{fill:#fff;}</style></defs><path class="cls-1" d="M8.1,8.44H5v6.23l.49,0v.51h-3c-.2,0-.39,0-.35.27a.44.44,0,0,0,.34.24c.67,0,1.35,0,2,0h1v.5l-.23,0H2.42a.78.78,0,1,1,0-1.56h.94v-7l-.8.43c-.31.16-.47.07-.48-.28a9.73,9.73,0,0,1,0-1.08.58.58,0,0,1,.24-.4C2.87,6,3.41,5.71,4,5.42A.36.36,0,0,0,4.18,5c0-.46,0-.93,0-1.4,0-.19.05-.41-.19-.53-.05,0-.07-.15-.07-.24,0-.29,0-.58,0-.88a.28.28,0,0,1,.32-.34H6.72c.24,0,.33.12.33.34s0,.59,0,.89c0,.07,0,.18,0,.21-.3.18-.19.46-.2.75l.31-.15C8,3.21,8.8,2.75,9.64,2.27a.51.51,0,0,1,.57,0l7.26,4a.44.44,0,0,1,.28.46c0,.35,0,.71,0,1.07s-.18.41-.45.27-.53-.29-.84-.46v4.43h-.54v-.34c0-1.35,0-2.71,0-4.07a.44.44,0,0,0-.26-.46c-1.83-1-3.65-2-5.47-3a.52.52,0,0,0-.56,0c-1.82,1-3.65,2-5.47,3-.15.08-.26.14-.26.35,0,2.32,0,4.64,0,7a1,1,0,0,0,0,.17h.51V8.39c0-.46,0-.49.47-.49H8.17c.39,0,.44,0,.44.43v3.73H8.1Zm-5.45-1,.28-.15c2.19-1.21,4.38-2.4,6.55-3.62a.77.77,0,0,1,.86,0c2.18,1.22,4.37,2.42,6.55,3.62l.3.16c.15-.49,0-.74-.46-1Q13.46,4.69,10.2,2.87a.5.5,0,0,0-.56,0C7.47,4.07,5.3,5.28,3.11,6.46,2.7,6.68,2.5,6.93,2.65,7.43ZM4.71,5c.5-.27,1-.52,1.41-.78A.3.3,0,0,0,6.26,4c0-.26,0-.53,0-.79H4.71Zm1.8-2.81H4.45v.49H6.51Z"/><path class="cls-1" d="M12.44,18.34H8a.49.49,0,0,1-.48-.24c-.54-.79-1.09-1.57-1.65-2.35a.4.4,0,0,1,0-.55c.56-.79,1.1-1.59,1.67-2.37A.6.6,0,0,1,8,12.61h9a1.29,1.29,0,0,1,1.31,1.3V17a1.29,1.29,0,0,1-1.33,1.31ZM6.32,15.47c.52.74,1,1.46,1.52,2.16a.46.46,0,0,0,.31.18H17a.78.78,0,0,0,.77-.78V13.91a.78.78,0,0,0-.79-.79H8.16a.39.39,0,0,0-.29.14Z"/><path class="cls-1" d="M12.23,11.55H10a.78.78,0,0,1-.88-.88c0-.65,0-1.29,0-1.93A.78.78,0,0,1,10,7.9h4.6a.78.78,0,0,1,.83.84v2a.78.78,0,0,1-.85.85Zm-.76-2.1v-1c-.53,0-1,0-1.54,0a.4.4,0,0,0-.26.23,6.94,6.94,0,0,0,0,.79Zm3.41,0a4.64,4.64,0,0,0,0-.75c0-.1-.14-.26-.22-.26-.53,0-1.05,0-1.57,0v1ZM9.66,10a4.14,4.14,0,0,0,0,.71c0,.12.15.3.24.31.52,0,1,0,1.55,0V10Zm3.41,1c.52,0,1,0,1.53,0a.35.35,0,0,0,.26-.25,4.83,4.83,0,0,0,0-.76H13.07Zm-.56,0V8.44H12V11Z"/><path class="cls-1" d="M8.62,16.75c0-.77,0-1.54,0-2.31,0-.09.18-.25.28-.26a7.66,7.66,0,0,1,1.07,0,.73.73,0,0,1,.66.5.66.66,0,0,1-.14.78.39.39,0,0,0-.09.56,7,7,0,0,1,.26.66l-.46.2c-.11-.24-.2-.46-.29-.68-.19-.49-.19-.49-.78-.44v1Zm.53-1.54a6.47,6.47,0,0,0,.77,0c.09,0,.25-.17.24-.23a.4.4,0,0,0-.25-.27,4.79,4.79,0,0,0-.76,0Z"/><path class="cls-1" d="M13.84,15.46v1.29h-.53c0-.77,0-1.55,0-2.33,0-.08.12-.23.18-.23a.42.42,0,0,1,.32.15c.26.37.49.77.78,1.23V14.19h.54c0,.77,0,1.55,0,2.33,0,.08-.12.23-.18.23a.42.42,0,0,1-.32-.15c-.26-.37-.49-.77-.73-1.15Z"/><path class="cls-1" d="M11.5,15.73v.51h1.27v.53c-.45,0-.9,0-1.34,0a.47.47,0,0,1-.46-.5c0-.53,0-1.06,0-1.6a.46.46,0,0,1,.46-.49c.44,0,.88,0,1.34,0v.51H11.5v.52h1v.53Z"/><path class="cls-1" d="M16.71,16.76h-.53V14.7h-.5v-.51h1.53v.48l-.5,0Z"/></svg>