<svg id="Layer_1" data-name="Layer 1" xmlns="http://www.w3.org/2000/svg" viewBox="0 0 20 20"><defs><style>.cls-1{fill:#fff;}</style></defs><path class="cls-1" d="M1.39,1.72c.74,0,1.45-.05,2.16,0A2.42,2.42,0,0,1,5.67,3.67s.06,0,.07,0A2.68,2.68,0,0,1,8,2.79c.48,0,1,0,1.45,0A2.36,2.36,0,0,1,7.64,5.43a7.72,7.72,0,0,1-1.28.08H5.74v2A2.5,2.5,0,0,1,7.51,6.6c.65,0,1.31,0,2,0A2.35,2.35,0,0,1,7.65,9.23a8.28,8.28,0,0,1-1.32.08H5.74v2.15H9.52v-.59c0-.74,0-1.49,0-2.23a.54.54,0,0,1,.09-.34C10.73,7.07,11.86,5.85,13,4.61l1.59,1.06,2.57-2.58H15.24V2.55h2.94V5.49h-.52V3.54l-.09,0c-.31.33-.63.65-.93,1a.42.42,0,0,0-.07.28v4a.56.56,0,0,0,.06.29A3,3,0,0,1,17,11.47h1.17V12c-.39,0-.78,0-1.16,0a.49.49,0,0,0-.33.19,3,3,0,0,1-5.09,0,.43.43,0,0,0-.45-.21H1.4v-.53H5.15v-1.1H3.81A2.43,2.43,0,0,1,1.4,7.68c1.28.1,2.67-.37,3.74.88V4.42H3.85A2.43,2.43,0,0,1,1.39,1.72ZM14.13,13.11a2.45,2.45,0,1,0-2.44-2.43A2.45,2.45,0,0,0,14.13,13.11Zm-3-5.57-.1,0c-.29.31-.58.61-.86.94a.66.66,0,0,0-.15.41c0,.75,0,1.51,0,2.26v.36h1.12ZM1.93,2.22A1.78,1.78,0,0,0,3.26,3.78a11.51,11.51,0,0,0,1.87.14A1.75,1.75,0,0,0,3.76,2.34,15.07,15.07,0,0,0,1.93,2.22Zm7,1.09a14.54,14.54,0,0,0-1.78.11A1.64,1.64,0,0,0,5.8,5c.47,0,.94,0,1.42,0A1.86,1.86,0,0,0,8.93,3.31Zm0,3.8a15,15,0,0,0-1.81.11A1.68,1.68,0,0,0,5.79,8.76c.47,0,1,0,1.42,0A1.85,1.85,0,0,0,8.93,7.11ZM2,8.19A1.73,1.73,0,0,0,3.34,9.77a15.09,15.09,0,0,0,1.79.11A1.75,1.75,0,0,0,3.75,8.3,17.53,17.53,0,0,0,2,8.19ZM16,8.3V5.05c-.38.39-.69.71-1,1A.31.31,0,0,0,15,6.3c0,.5,0,1,0,1.45ZM12.77,5.71c-.68.61-1.28,1.17-1.09,2.16a5.25,5.25,0,0,1,0,1c.34-.27.65-.5,1-.76a.41.41,0,0,0,.13-.27C12.78,7.13,12.77,6.45,12.77,5.71ZM14.4,7.65c0-.44,0-.88,0-1.32a.26.26,0,0,0-.1-.19c-.31-.22-.63-.42-1-.65V7.76Z"/><path class="cls-1" d="M7.34,14.74h4.53a.81.81,0,0,1,.9.9v.73h4.64a.33.33,0,0,1,.1,0c.57.17.74.43.69,1.35a.8.8,0,0,1-.79.81c-1.46,0-2.92,0-4.37,0-.37,0-.72,0-1.08,0-1.44,0-2.89,0-4.34,0-.37,0-.73,0-1.1,0-1.44,0-2.87,0-4.31,0a.79.79,0,0,1-.83-.83,8,8,0,0,1,.14-1,.29.29,0,0,0,0-.16,1.7,1.7,0,0,1,0-1.49.17.17,0,0,0,0-.12,9,9,0,0,1-.15-1,.79.79,0,0,1,.81-.82H6.53a.8.8,0,0,1,.81.72C7.36,14.13,7.34,14.44,7.34,14.74Zm-3.25-.57H3.54v-.5H3l0,.51H2.48l0-.51c-.29,0-.51,0-.53.34,0,.63,0,.73.45.73H6.19c.62,0,.62,0,.61-.63,0-.43-.1-.51-.55-.41v.47H5.73l0-.49H5.18l0,.49H4.61v-.5H4.09Zm0,1.62H3.53v-.5H3l0,.51H2.45v-.49c-.42-.05-.51,0-.53.31,0,.64,0,.74.43.74H6.21c.59,0,.6,0,.59-.62,0-.44-.08-.51-.53-.43l0,.49H5.73l0-.51H5.16v.5H4.65l0-.5H4.09v.49Zm3.79-.48c-.42-.05-.52,0-.54.31,0,.64,0,.74.44.74h3.86c.59,0,.6,0,.59-.62,0-.44-.08-.51-.53-.43l0,.47h-.51l0-.49h-.54v.5h-.51l0-.5H9.51v.5H9v-.51H8.44l0,.51H7.88ZM3.56,17.43l0-.5H3v.5H2.47l0-.51c-.29,0-.51,0-.53.35,0,.64,0,.72.46.72H6.19c.61,0,.62,0,.61-.63,0-.42-.07-.47-.53-.43l0,.5H5.7v-.51H5.19l0,.5H4.62v-.49H4.1l0,.5Zm4.33-.51c-.31,0-.54,0-.55.35,0,.63,0,.72.45.72h3.83c.61,0,.62,0,.61-.63,0-.42-.11-.51-.55-.4v.47h-.52l0-.51h-.51l0,.51h-.52l0-.5H9.53l0,.49H9l0-.49H8.42v.5H7.89Zm8.14.51h-.52l0-.5h-.53v.5h-.52l0-.5h-.52l0,.5h-.51l0-.51c-.45,0-.52,0-.53.4,0,.62,0,.67.47.67h3.82c.59,0,.6,0,.6-.61,0-.44-.08-.51-.53-.44l0,.48h-.52l0-.49H16Z"/><path class="cls-1" d="M13.87,12.55V12h-.8v-.81h.45c.05.08.12.24.18.25a4.91,4.91,0,0,0,.86-.07s.12-.18.09-.25a.35.35,0,0,0-.23-.2,2.57,2.57,0,0,0-.48,0,.85.85,0,0,1-.89-.71.83.83,0,0,1,.67-.91l.14,0V8.79h.52l0,.52h.78v.8h-.46c-.05-.08-.11-.24-.18-.24a4.91,4.91,0,0,0-.86.06s-.12.19-.09.25a.35.35,0,0,0,.24.2,2.43,2.43,0,0,0,.47,0,.83.83,0,0,1,.89.7.84.84,0,0,1-.67.92l-.14,0v.5Z"/></svg>