<svg id="Layer_1" data-name="Layer 1" xmlns="http://www.w3.org/2000/svg" viewBox="0 0 20 20"><defs><style>.cls-1{fill:#fff;}</style></defs><path class="cls-1" d="M14.48,15h-.74c0,.23,0,.45,0,.67a.4.4,0,0,1-.43.45H12a.38.38,0,0,1-.42-.42V15H6.61v.66a.39.39,0,0,1-.44.44H4.84c-.3,0-.44-.16-.45-.47V15a3.86,3.86,0,0,1-.68-.29,1.21,1.21,0,0,1-.57-1.08V5.18A1.28,1.28,0,0,1,4.48,3.85H16.19a1.31,1.31,0,0,1,1.46,1.47c0,2.75,0,5.5,0,8.25a1.34,1.34,0,0,1-.8,1.31.35.35,0,0,0-.14.23,5.42,5.42,0,0,0,0,.57.38.38,0,0,1-.41.4H14.9a.39.39,0,0,1-.42-.43C14.47,15.43,14.48,15.21,14.48,15Zm0-10.78a1.65,1.65,0,0,1,.41,1.28c0,2.48,0,5,0,7.45a2.14,2.14,0,0,1-.39,1.71h1.85a.9.9,0,0,0,.92-.93V5.12a.91.91,0,0,0-.9-.93C15.8,4.17,15.2,4.18,14.52,4.18ZM9,14.62h4.53a.94.94,0,0,0,1-1V5.23a1,1,0,0,0-1.05-1.05h-9A1,1,0,0,0,3.48,5.23v8.33a1,1,0,0,0,1.07,1.06Zm-4.28,1.1H6.26V15H4.74ZM13.39,15h-1.5v.75h1.5Zm3,0H14.84v.74h1.51Z"/><path class="cls-1" d="M9,4.63h4a.93.93,0,0,1,1,1v7.51a.92.92,0,0,1-1,1H5a.92.92,0,0,1-1-1V5.64a.92.92,0,0,1,1-1ZM4.36,12.09l0,.06c0,.33,0,.66,0,1,0,.49.22.72.71.72h8c.51,0,.72-.23.72-.74V5.68c0-.51-.2-.71-.7-.71H4.94a.55.55,0,0,0-.6.48c0,.33,0,.66,0,1h.33c.27,0,.36.09.34.35s0,.55,0,.82c0,.5.12.6-.56.58l-.09,0v2.13h.33c.25,0,.34.08.32.32s0,.51,0,.77c0,.6,0,.6-.58.63Zm.3-4.25v-1H4.35v1Zm0,3.88v-1h-.3v1Z"/><path class="cls-1" d="M8.18,12.34a3,3,0,0,1,0-6,3,3,0,1,1,0,6Zm0-.33A2.67,2.67,0,1,0,5.52,9.36,2.64,2.64,0,0,0,8.19,12Z"/><path class="cls-1" d="M12.78,9.14v1.55c0,.45-.21.69-.6.69s-.59-.26-.59-.7c0-.73,0-1.46,0-2.18a.59.59,0,0,1,.76-.63,3.13,3.13,0,0,0,.44,0,.56.56,0,0,1,.6.51.59.59,0,0,1-.48.69Zm-.86.46c0,.38,0,.76,0,1.13,0,.18.06.3.25.31s.28-.12.28-.31c0-.75,0-1.49,0-2.23,0-.17,0-.3-.25-.3s-.28.11-.28.3C11.93,8.87,11.92,9.24,11.92,9.6Zm.95-1.37-.07.06v.47l.1,0c0-.1.14-.2.14-.31S12.93,8.31,12.87,8.23Z"/><path class="cls-1" d="M8.17,11.66a2.31,2.31,0,1,1,2.32-2.3A2.32,2.32,0,0,1,8.17,11.66Zm-2-2.13.21.72.34-.18.15.26-.29.23L7,11l.21-.29.26.15-.16.33.65.17L8,11h.3l.05.33.68-.2-.16-.32.26-.16.22.29.41-.45-.31-.2L9.64,10l.35.16.16-.66-.36,0V9.19l.37,0L10,8.43l-.37.2-.16-.27.33-.23L9.28,7.7l-.23.35-.26-.16L9,7.52l-.6-.13,0,.42-.3,0,0-.43-.74.22L7.46,8l-.26.16L7,7.79l-.42.45.33.22-.15.27-.36-.17-.15.59.4,0,0,.3Z"/><path class="cls-1" d="M8.19,8.2A1.12,1.12,0,0,1,9.32,9.35,1.14,1.14,0,0,1,8.18,10.5a1.15,1.15,0,1,1,0-2.3ZM9,9.34a.8.8,0,0,0-.82-.81.83.83,0,0,0-.82.81.84.84,0,0,0,.82.83A.82.82,0,0,0,9,9.34Z"/></svg>