<svg id="Layer_1" data-name="Layer 1" xmlns="http://www.w3.org/2000/svg" viewBox="0 0 20 20"><defs><style>.cls-1{fill:#fff;}</style></defs><path class="cls-1" d="M3.43,11.89c-.26.16-.45.27-.64.4a.26.26,0,0,1-.42-.1c-.24-.39-.51-.77-.74-1.17A1.24,1.24,0,0,1,2,9.32c.37-.25.75-.48,1.16-.74A1.32,1.32,0,0,1,2.5,7.47,1.18,1.18,0,0,1,3.92,6.31l2,.42c.19-.84.37-1.65.56-2.47a1.19,1.19,0,1,1,2.32.48,2.16,2.16,0,0,0,0,.31l1-.64a1.24,1.24,0,0,1,1.8.39c.23.34.42.69.66,1s.13.41-.13.57L7.15,9.52,4.7,11.07a.91.91,0,0,0-.24.24h8.72c.48,0,.48,0,.48.48v5.14a1.26,1.26,0,0,1-1.44,1.44H4.87a1.28,1.28,0,0,1-1.44-1.45v-5Zm6.32-.15V18h2.48c.73,0,1-.29,1-1,0-1.62,0-3.25,0-4.87,0-.11,0-.22,0-.33Zm-5.89,0c0,1.84,0,3.66,0,5.47a.73.73,0,0,0,.64.72c.72,0,1.44,0,2.15,0v-6.2Zm5.43,0H7.11v6.18H9.29Zm-6.63.12L6,9.76,4.86,8,2.27,9.66A.82.82,0,0,0,2,10.8C2.19,11.15,2.42,11.49,2.66,11.88ZM7.45,6.35,8.58,8.12,11.84,6c-.24-.38-.46-.74-.69-1.08a.79.79,0,0,0-1.07-.26C9.21,5.23,8.35,5.78,7.45,6.35ZM5.21,7.78,6.33,9.54l1.89-1.2L7.1,6.58ZM6.33,6.57c.64-.41,1.2-.75,1.74-1.11a.47.47,0,0,0,.16-.25c.06-.22.1-.45.14-.67a.79.79,0,0,0-.55-.88.77.77,0,0,0-.93.47C6.69,4.91,6.53,5.69,6.33,6.57Zm-.81.52c-.66-.15-1.23-.29-1.79-.39A.72.72,0,0,0,3,7.22.69.69,0,0,0,3.15,8c.15.11.45.25.57.18C4.31,7.88,4.87,7.5,5.52,7.09Z"/><path class="cls-1" d="M15.85,9c-.19.33.05.56.3.8s.14.38-.1.39a.79.79,0,0,0-.8.57c-.08.23-.3.22-.4,0a.76.76,0,0,0-.76-.55c-.26,0-.32-.23-.11-.4a.77.77,0,0,0,.29-.86c-.06-.29.1-.4.36-.24a.71.71,0,0,0,.87,0C15.75,8.52,15.88,8.63,15.85,9Zm-.79,1.13.44-.33-.17-.5h-.54l-.16.5Z"/><path class="cls-1" d="M16.21,7.65c.24-.34.06-.63-.21-.92s-.06-.38.19-.36A.76.76,0,0,0,17,5.89c.1-.23.32-.21.39,0a.81.81,0,0,0,.73.64c.25,0,.28.24.07.39a.75.75,0,0,0-.37.86c.06.25-.16.37-.37.2a.73.73,0,0,0-.9-.08C16.32,8.05,16.18,7.93,16.21,7.65Zm1.11-.26.22-.49-.4-.37-.48.28.14.52Z"/><path class="cls-1" d="M15.78,3.78c-.18.08-.33.15-.48.2s-.41,0-.31-.3a.69.69,0,0,0-.2-.88.31.31,0,0,1-.07-.27A.31.31,0,0,1,15,2.41.67.67,0,0,0,15.72,2c0-.09.16-.2.24-.19s.2.13.22.21a.65.65,0,0,0,.64.56c.09,0,.23.11.24.19a.33.33,0,0,1-.15.27.63.63,0,0,0-.33.77.32.32,0,0,1-.11.29s-.19,0-.28,0S15.9,3.86,15.78,3.78Zm-.23-.42.52.06.24-.49-.41-.37-.46.28Z"/><path class="cls-1" d="M14.25,6.56c.25.06.66.15,1.07.27.1,0,.16.2.24.3-.12,0-.26.11-.36.08A2.77,2.77,0,0,0,11.65,8.5c-.06.09-.22.12-.34.18,0-.13-.06-.29,0-.39A3.34,3.34,0,0,1,14.25,6.56Z"/><path class="cls-1" d="M13.83,6.11A4.52,4.52,0,0,1,13.19,6C13.1,6,13,5.81,13,5.72a1.15,1.15,0,0,1,.32-.12c.31,0,.62.08.92.06a1.37,1.37,0,0,0,1.3-1c0-.09,0-.19.08-.26a.93.93,0,0,1,.26-.15c0,.08.14.17.12.24a1.83,1.83,0,0,1-1.54,1.62A3.81,3.81,0,0,1,13.83,6.11Z"/><path class="cls-1" d="M12.82,9.05a3.2,3.2,0,0,1,.61.1c.09,0,.15.16.22.25-.1,0-.2.13-.3.13a4.91,4.91,0,0,0-1.22.05,4,4,0,0,0-1.05.67c-.13.09-.23.28-.39.1a.41.41,0,0,1,.07-.37A2.55,2.55,0,0,1,12.82,9.05Z"/><path class="cls-1" d="M10.06,8.94c0,.26-.14.39-.38.39S9.29,9.17,9.34,9a.55.55,0,0,1,.34-.34C9.91,8.57,10,8.74,10.06,8.94Z"/><path class="cls-1" d="M17.73,10c-.1-.14-.25-.27-.28-.42s.13-.36.35-.37a.33.33,0,0,1,.36.36c0,.15-.17.29-.27.43Z"/><path class="cls-1" d="M10.12,11.11c-.09-.14-.25-.28-.26-.43a.29.29,0,0,1,.38-.32c.14,0,.33.22.33.34s-.18.28-.29.42Z"/><path class="cls-1" d="M18.84,4.47c-.14.1-.29.27-.43.26a.53.53,0,0,1-.34-.33A.3.3,0,0,1,18.41,4c.15,0,.28.18.43.28Z"/><path class="cls-1" d="M13.58,3.87c-.09.32-.24.46-.46.4a.56.56,0,0,1-.31-.36.28.28,0,0,1,.36-.33C13.32,3.61,13.44,3.77,13.58,3.87Z"/></svg>