<svg id="Layer_1" data-name="Layer 1" xmlns="http://www.w3.org/2000/svg" viewBox="0 0 20 20"><defs><style>.cls-1{fill:#fff;}</style></defs><path class="cls-1" d="M11.25,14.64c-.75,0-1.46,0-2.18,0a18.9,18.9,0,0,1-2.26-.1,4.37,4.37,0,0,1-3.55-3.75c0-.47,0-1,0-1.45a.42.42,0,0,1,.42-.46.43.43,0,0,1,.44.47,3,3,0,0,0,2.34,2.9,2.32,2.32,0,0,0,.58.08h4.27V10.55a.46.46,0,0,1,.28-.48.45.45,0,0,1,.53.14l2.69,2.58.39.37a.4.4,0,0,1,0,.64c-1,1-2.09,2-3.15,3a.52.52,0,0,1-.48.09.57.57,0,0,1-.26-.42c0-.54,0-1.08,0-1.62A1.72,1.72,0,0,0,11.25,14.64Z"/><path class="cls-1" d="M9,6.57H9.4c1.23,0,2.45,0,3.67,0A4.41,4.41,0,0,1,17,10.36c.05.5.05,1,.06,1.51a.43.43,0,1,1-.86,0A3,3,0,0,0,13.83,9a2.33,2.33,0,0,0-.59-.08H9v1.54a.85.85,0,0,1,0,.32c-.06.14-.15.33-.28.38A.53.53,0,0,1,8.23,11a10.72,10.72,0,0,1-.85-.8c-.75-.71-1.5-1.42-2.24-2.14-.29-.27-.28-.48,0-.75l3-2.86a.51.51,0,0,1,.57-.18A.48.48,0,0,1,9,4.85Z"/></svg>