<svg id="Layer_1" data-name="Layer 1" xmlns="http://www.w3.org/2000/svg" viewBox="0 0 20 20"><defs><style>.cls-1{fill:#fff;}</style></defs><path class="cls-1" d="M7.65,16.77v-.45c-.51-.13-.51-.13-.51-.69v-.4c0-.52,0-.52.51-.57v-.48c-.51-.07-.51-.07-.51-.59V12c0-.46,0-.48.5-.51,0-.23.11-.46-.17-.62,0,0-.06-.14-.07-.21v-1c0-.2.09-.31.3-.31H9v.53H8v.51h3.67V9.93h-1V9.39c.44,0,.86,0,1.29,0,.1,0,.23.17.27.29a3.49,3.49,0,0,1,0,.46,2.63,2.63,0,0,0,.15.35,1.21,1.21,0,0,1,.11.3c0,.23,0,.46,0,.69,0,.51,0,.51-.51.57V13.6c.51.06.51.06.51.59v.5c0,.49,0,.5-.51.54a2.29,2.29,0,0,1,0,.25v.22c.53.09.53.09.53.63v.5c0,.46,0,.48-.53.51v.71c0,.23-.1.34-.34.34H7.49c-.25,0-.36-.11-.35-.36v-.66C7.14,16.84,7.14,16.84,7.65,16.77Zm4.24-2.1v-.5H8.22v.5Zm0,1.62H8.21v.49h3.68ZM7.68,12.54h3.67v-.48H7.68Zm1-1.55H8.22v.5h.49Zm-1,2.12v.49h.49v-.49Zm.5,2.12H7.69v.49h.49Zm1.07,0h-.5v.49h.5Zm.55,0v.5h.49v-.5Zm1.56.51v-.5h-.49v.5Zm.53-4.24V11H11.4v.5ZM9.8,13.6h.49v-.48H9.8Zm.52-2.12h.5V11h-.5ZM8.74,13.6h.49v-.48H8.74Zm.53-2.12h.49V11H9.27ZM7.68,17.84h.5v-.49h-.5Zm1.07-.49v.49h.49v-.49Zm1.54.5v-.5H9.8v.5Zm.57-.5v.49h.49v-.49Zm.49-3.73v-.51h-.48v.51Z"/><path class="cls-1" d="M2.1,13.61c0-.57,0-1.12,0-1.67,0-.31.09-.44.42-.44h3.4c.33,0,.43.13.42.44,0,.57,0,1.14,0,1.72s0,.47-.51.5v.48c.51.11.51.11.51.66v.4c0,.53,0,.53-.51.6v.48c.51.06.51.06.51.56V18c0,.23-.09.35-.33.35H2.43c-.23,0-.33-.12-.33-.35s0-.46,0-.68c-.53-.06-.53-.06-.53-.57v-.53c0-.48,0-.49.51-.54a2.11,2.11,0,0,0,0-.25,1.61,1.61,0,0,0,0-.22c-.53-.09-.53-.09-.53-.6v-.53C1.57,13.66,1.59,13.64,2.1,13.61Zm3.7,3.74H2.65v.49H5.8ZM2.65,13.6H5.79v-.49H2.65Zm0,2.12H5.79v-.49H2.65Zm.75-3.17v-.49H2.65v.49Zm1.63,0h.76v-.49H5ZM2.12,16.78h.76v-.49H2.12Zm0-2.12h.76v-.48H2.12Zm3.14,0v-.5H4.51v.5Zm-.76,2.1h.76v-.48H4.5Zm-.56-2.1v-.49h-.5v.49Zm0-2.13h.5v-.48H4Zm0,4.25V16.3h-.5v.49Z"/><path class="cls-1" d="M13.76,13.6V12c0-.39.05-.45.43-.45h3.38c.38,0,.42.06.43.45v1.66c0,.51,0,.51-.52.57v.47c.52.07.52.07.52.6v.5c0,.48,0,.5-.51.54v.47c.51.09.51.09.51.63,0,.22,0,.45,0,.67a.29.29,0,0,1-.32.33H14.07c-.22,0-.31-.12-.31-.33v-.69c-.53-.09-.53-.09-.53-.6v-.53c0-.46,0-.48.5-.51v-.48c-.5-.11-.5-.11-.5-.65v-.43C13.23,13.66,13.23,13.66,13.76,13.6Zm.54,4.24h3.15v-.49H14.3Zm3.16-4.72H14.31v.48h3.15Zm0,2.11H14.3v.49h3.15Zm-.53,1.06h-.75v.5h.75ZM14.3,12.54h.76v-.49H14.3Zm.24,1.63h-.76v.49h.76Zm2.91-2.12h-.76v.49h.76Zm-.52,2.13h-.76v.48h.76Zm-3.16,2.59h.77v-.48h-.77Zm1.82-2.1v-.5H15.1v.5Zm-.49,2.11h.5v-.49h-.5Zm1-4.22v-.51h-.48v.51Z"/><path class="cls-1" d="M9.8,2h4.87c.65,0,.94.29.94,1v3.9c0,.68-.28,1-1,1h-3.6a.32.32,0,0,0-.37.27c-.19.61-.39,1.21-.61,1.81,0,.12-.19.2-.29.31-.1-.11-.24-.2-.28-.32a15.93,15.93,0,0,1-.56-1.69c-.09-.32-.25-.39-.56-.38H4.87A.8.8,0,0,1,4,6.88v-4A.8.8,0,0,1,4.88,2ZM9.75,9h.07c.15-.45.31-.89.44-1.34a.44.44,0,0,1,.51-.36h3.87c.39,0,.44,0,.44-.43V3c0-.41-.05-.46-.45-.46H4.94c-.41,0-.45,0-.45.46V6.8c0,.42,0,.46.48.46H8.81a.44.44,0,0,1,.5.36C9.44,8.07,9.6,8.51,9.75,9Z"/><path class="cls-1" d="M11.64,3.57c0,.79,0,1.56,0,2.33,0,.1-.1.26-.17.27A.4.4,0,0,1,11.13,6c-.21-.3-.39-.62-.58-.92l-.23-.34V6.19H9.79V5.25c0-.44,0-.88,0-1.32,0-.13.12-.24.18-.36.12.07.28.11.36.21.25.36.48.75.78,1.11V3.57Z"/><path class="cls-1" d="M12.17,4.85v-1a.29.29,0,0,1,.31-.34,1.34,1.34,0,1,1,0,2.66.3.3,0,0,1-.31-.34Zm.55-.75V5.66a.79.79,0,0,0,.77-.81A.77.77,0,0,0,12.72,4.1Z"/><path class="cls-1" d="M7.41,3.57h.52V5.25a.39.39,0,0,0,.41.42.37.37,0,0,0,.38-.42c0-.55,0-1.1,0-1.67h.53c0,.62,0,1.23,0,1.85a.92.92,0,0,1-1.82,0C7.38,4.81,7.41,4.2,7.41,3.57Z"/><path class="cls-1" d="M6.07,5.39v.8H5.55V5.45c0-.5,0-1,0-1.52,0-.26.1-.38.37-.38h.94v.52H6.1v.79h.75v.52Z"/></svg>