<svg id="Layer_1" data-name="Layer 1" xmlns="http://www.w3.org/2000/svg" viewBox="0 0 20 20"><defs><style>.cls-1{fill:#fff;}</style></defs><path class="cls-1" d="M4.77,10.6h12c0-.53,0-1,0-1.54a.84.84,0,0,0-.87-.74H14.33c-.22,0-.42-.05-.38-.29a.51.51,0,0,1,.37-.27c.55,0,1.1,0,1.64,0a1.41,1.41,0,0,1,1.39,1.4q0,3.18,0,6.36A1.39,1.39,0,0,1,16,16.9q-5.18,0-10.36,0a1.39,1.39,0,0,1-1.39-1.39c0-1.83,0-3.67,0-5.5,0-.22.06-.42.3-.38s.22.23.26.38A2.28,2.28,0,0,1,4.77,10.6Zm0,2.31v2.4c0,.7.32,1,1,1h10c.7,0,1-.32,1-1V13.23c0-.11,0-.21,0-.32Zm0-.61h12V11.2h-12Z"/><path class="cls-1" d="M9.06,5.75A3.43,3.43,0,1,1,5.64,2.32,3.43,3.43,0,0,1,9.06,5.75ZM5.65,2.89A2.86,2.86,0,1,0,8.49,5.77,2.87,2.87,0,0,0,5.65,2.89Z"/><path class="cls-1" d="M11.06,9c0-1,0-2,0-2.92A1.23,1.23,0,0,0,9.88,4.9c-.21,0-.4-.07-.38-.32s.26-.27.47-.26a1.87,1.87,0,0,1,1.66,1.8c0,.84,0,1.67,0,2.5V9l.09.06,1-1.07c.15-.16.31-.3.51-.09s0,.34-.1.48L11.64,9.87c-.2.2-.37.22-.57,0-.52-.53-1-1.05-1.57-1.57-.13-.14-.24-.29-.08-.46s.34-.09.49.06c.35.37.71.73,1.07,1.1Z"/><path class="cls-1" d="M8.47,14.61H6.9c-.22,0-.41,0-.4-.3s.2-.28.41-.28q1.59,0,3.18,0c.21,0,.4.05.39.3s-.2.28-.41.28Z"/><path class="cls-1" d="M13.41,14.61c-.42,0-.84,0-1.25,0-.13,0-.25-.18-.37-.27.12-.1.24-.27.37-.27.85,0,1.69,0,2.53,0,.13,0,.25.18.38.27-.13.1-.25.26-.38.27C14.26,14.64,13.83,14.61,13.41,14.61Z"/><path class="cls-1" d="M5.63,4a1.76,1.76,0,0,1,.3.21L7.22,5.45c.2.2.22.38,0,.58-.44.44-.88.87-1.31,1.32a.35.35,0,0,1-.58,0L4,6a.33.33,0,0,1,0-.55L5.36,4.14A2.11,2.11,0,0,1,5.63,4Zm0,.79-1,1,1,1,1-1Z"/></svg>