<svg id="Layer_1" data-name="Layer 1" xmlns="http://www.w3.org/2000/svg" viewBox="0 0 20 20"><defs><style>.cls-1{fill:#fff;}</style></defs><path class="cls-1" d="M12.53,15.41H6.67c0,.37,0,.73,0,1.09a.76.76,0,0,1-.84.85H4.57a.74.74,0,0,1-.83-.83c0-.34,0-.67,0-1a.38.38,0,0,0-.17-.28,1.47,1.47,0,0,1-.8-1.33c0-.4,0-.8,0-1.2a5.82,5.82,0,0,1,.16-.79l-.22-.13A1,1,0,0,1,3.21,10c.32,0,.63,0,1,0a.32.32,0,0,0,.22-.17A5.58,5.58,0,0,0,4.65,9a.92.92,0,0,1,.53-.66c.31-.15.63-.26,1-.41v-.8H4.28a.75.75,0,0,1-.8-.77c0-1,0-1.93,0-2.89a.73.73,0,0,1,.8-.75H14.91a.74.74,0,0,1,.81.8c0,.93,0,1.87,0,2.8a.75.75,0,0,1-.81.81H13.06v.81c.33.14.66.26,1,.41a.86.86,0,0,1,.51.64c.07.3.19.58.26.88,0,.15.11.19.25.19h.83a1,1,0,0,1,.46,1.87l-.09,0A4.72,4.72,0,0,1,16.44,14a1.34,1.34,0,0,1-.79,1.21.28.28,0,0,0-.18.31v1.06a.74.74,0,0,1-.79.76H13.34a.76.76,0,0,1-.81-.81ZM9.6,6.57h5.24c.34,0,.38,0,.38-.38V3.55c0-.33,0-.39-.37-.39H4.36c-.33,0-.38,0-.38.39v2.6c0,.4,0,.42.43.42Zm-5.07,4.6a30.54,30.54,0,0,1,10.14,0c-.2-.72-.38-1.39-.59-2.05a.69.69,0,0,0-.34-.42,7.59,7.59,0,0,0-1.33-.41,16,16,0,0,0-5.3,0,10.14,10.14,0,0,0-1.61.45A.57.57,0,0,0,5.15,9C4.93,9.71,4.75,10.41,4.53,11.17Zm5.06,3.72h5.33a1,1,0,0,0,1-1c0-.43,0-.86,0-1.28a1,1,0,0,0-.83-.93c-1.18-.15-2.36-.31-3.55-.42a25.12,25.12,0,0,0-5.2.11c-.73.08-1.45.22-2.18.3a1,1,0,0,0-1,1v1.09a1,1,0,0,0,1,1.05Zm-5.37.52v1.15a.25.25,0,0,0,.27.29c.48,0,1,0,1.43,0,.08,0,.23-.12.23-.19,0-.41,0-.83,0-1.24Zm10.77,0H13c0,.39,0,.76,0,1.13s.1.31.31.31h1.35a.27.27,0,0,0,.3-.3ZM7.66,7.6h3.87V7.1H7.66ZM4.21,10.52c-.37,0-.72,0-1.07,0a.41.41,0,0,0-.37.41.45.45,0,0,0,.28.5,1.68,1.68,0,0,0,1-.24.36.36,0,0,0,0-.11C4.12,10.9,4.16,10.72,4.21,10.52Zm10.78,0c.06.21.1.39.15.56a.31.31,0,0,0,.12.17,3.49,3.49,0,0,0,.53.22.52.52,0,0,0,.64-.34.46.46,0,0,0-.41-.6C15.69,10.49,15.36,10.51,15,10.51ZM6.69,7.77c.5,0,.58-.14.41-.67H6.67c0,.2,0,.38,0,.56A.41.41,0,0,0,6.69,7.77Zm5.4-.68c-.1.63-.05.71.42.66V7.09Z"/><path class="cls-1" d="M6.28,3.35a1.29,1.29,0,0,1,1,.47.76.76,0,0,1,.15.41c0,.09-.11.25-.17.25a.35.35,0,0,1-.28-.17A.73.73,0,0,0,5.84,4c-.19.14-.21.34,0,.46a1.19,1.19,0,0,0,.49.13,1.25,1.25,0,0,1,.89.4.71.71,0,0,1,0,.89,1.26,1.26,0,0,1-1.91,0,.73.73,0,0,1-.14-.37.37.37,0,0,1,.18-.27.34.34,0,0,1,.28.16.74.74,0,0,0,1,.33c.26-.16.27-.39,0-.53a2.11,2.11,0,0,0-.38-.1,3.44,3.44,0,0,1-.82-.28.7.7,0,0,1,0-1.2A3.58,3.58,0,0,1,6.28,3.35Z"/><path class="cls-1" d="M10.1,6.13s-.11.16-.19.18-.17,0-.25-.07,0-.06-.06-.1-.13-.47-.26-.51a2.76,2.76,0,0,0-.91,0s-.11.08-.14.14a2,2,0,0,1-.17.39c-.07.09-.21.19-.31.17S7.62,6.12,7.68,6c.15-.39.31-.77.46-1.16s.31-.78.48-1.17a.43.43,0,0,1,.25-.21c.08,0,.21.11.24.19.32.78.63,1.56.94,2.33A1.24,1.24,0,0,1,10.1,6.13Zm-.92-1-.31-.79-.32.79Z"/><path class="cls-1" d="M12.79,3.88v.74h.63c.18,0,.32,0,.33.24s-.15.26-.33.26H12.8v.72h.84c.18,0,.36,0,.36.24s-.18.26-.37.26h-1c-.22,0-.34-.09-.34-.32,0-.77,0-1.53,0-2.29,0-.21.08-.33.3-.32.38,0,.75,0,1.12,0,.1,0,.27.13.28.23s-.11.23-.28.23Z"/><path class="cls-1" d="M10.82,5.84h.89c.17,0,.34,0,.33.26s-.15.24-.33.24H10.65A.27.27,0,0,1,10.34,6V3.73c0-.16,0-.31.24-.32s.24.15.24.32V5.84Z"/><path class="cls-1" d="M9.62,14.42H7.76a.77.77,0,0,1-.85-.85V13a.72.72,0,0,1,.75-.79q2,0,3.9,0a.73.73,0,0,1,.74.78v.54a.78.78,0,0,1-.9.89Zm0-1.72H8.23c-.9,0-.82-.11-.82.83,0,.35,0,.38.4.38H11c.94,0,.83.14.84-.86,0-.26-.11-.36-.36-.35C10.83,12.71,10.23,12.7,9.63,12.7Z"/><path class="cls-1" d="M3.74,13.31a1.1,1.1,0,1,1,2.19,0,1.1,1.1,0,1,1-2.19,0Zm1.7,0a.6.6,0,0,0-.61-.62.62.62,0,0,0-.61.59.61.61,0,0,0,.58.62A.6.6,0,0,0,5.44,13.32Z"/><path class="cls-1" d="M15.47,13.31a1.11,1.11,0,0,1-1.11,1.11,1.13,1.13,0,0,1-1.09-1.1,1.1,1.1,0,1,1,2.2,0Zm-1.7,0a.58.58,0,0,0,.56.62.62.62,0,0,0,.66-.58.63.63,0,0,0-.61-.63A.6.6,0,0,0,13.77,13.29Z"/></svg>