<svg id="Layer_1" data-name="Layer 1" xmlns="http://www.w3.org/2000/svg" viewBox="0 0 20 20"><defs><style>.cls-1{fill:#fff;}</style></defs><path class="cls-1" d="M5.16,16c-.17.55-.3.65-.87.65H3.53a.58.58,0,0,1-.6-.61c0-1.65,0-3.29,0-4.94a.58.58,0,0,1,.58-.6h1c.36,0,.54.23.62.72l.56.06C5.65,8.81,7,7.1,8.87,5.58a2,2,0,0,0-1.68.7c-.06.07-.22.07-.33.1,0-.12-.05-.26,0-.35a2,2,0,0,1,1.36-.81l.62-.08A1,1,0,0,0,8,4.71c-.34,0-.67-.06-1-.11a1.14,1.14,0,0,1-.34-.15c-.12-.07-.25-.16-.15-.33s.23-.11.36,0a1.76,1.76,0,0,0,1.06.2,1.31,1.31,0,0,1,1,.3l.21.16.06,0c0-.06,0-.12-.08-.17-.16-.36-.34-.71-.49-1.07a1.13,1.13,0,0,1,0-.45.39.39,0,0,1,.58-.35.47.47,0,0,0,.47,0,.71.71,0,0,1,.82,0,.42.42,0,0,0,.5,0,.78.78,0,0,1,.83,0,.66.66,0,0,0,.44,0c.36-.1.59,0,.59.39a1.91,1.91,0,0,1-.14.71c-.14.33-.33.65-.47.92.07.28.13.52.2.76a.31.31,0,0,0,.13.17l.52.44c.11.09.23.2.1.35s-.27.06-.39,0-.3-.26-.46-.38a.29.29,0,0,0-.22,0A4.2,4.2,0,0,1,10,6.15,6.41,6.41,0,0,1,9.23,6,.22.22,0,0,0,9,6a7.11,7.11,0,0,0-2.81,4.12,6.34,6.34,0,0,0-.07,1.07.34.34,0,0,0,.18.23A12.9,12.9,0,0,1,7.52,12a4.64,4.64,0,0,0,2,.5c.42.05.84.08,1.26.15A1.31,1.31,0,0,1,12,14a1.05,1.05,0,0,0,0,.13c.85-.37,1.69-.74,2.52-1.12a.54.54,0,0,0,.22-.25A3.94,3.94,0,0,0,15,9.45,6.5,6.5,0,0,0,13.61,7.2c-.1-.12-.22-.24-.06-.38s.27,0,.37.1a6.29,6.29,0,0,1,1.73,3.71,4.17,4.17,0,0,1-.23,1.75l-.1.29a5,5,0,0,1,.5-.17.86.86,0,0,1,1,.52.88.88,0,0,1-.36,1.1L13.69,15.9l-1.07.68a2.64,2.64,0,0,1-1.37.38c-1,0-2,0-3,0a4.11,4.11,0,0,1-1.09-.2C6.47,16.54,5.82,16.27,5.16,16Zm0-4.31a1.9,1.9,0,0,1,0,.48,1,1,0,0,1-.21.3c-.07-.11-.19-.2-.2-.31a7.22,7.22,0,0,1,0-.93C4.7,11,4.62,11,4.4,11a5.61,5.61,0,0,1-.71,0c-.28,0-.36.11-.36.37,0,1.11,0,2.22,0,3.33,0,.42,0,.85,0,1.27,0,.25.1.36.35.35h.65c.27,0,.37-.09.36-.36,0-.81,0-1.62,0-2.43,0-.17,0-.41.22-.4s.21.22.21.39c0,.61,0,1.22,0,1.83a.32.32,0,0,0,.25.36l1.93.71a2.38,2.38,0,0,0,.74.15c1.11,0,2.22,0,3.33,0a2.15,2.15,0,0,0,1.13-.38l2.29-1.45,1.47-.93a.47.47,0,0,0,.2-.61.45.45,0,0,0-.6-.23,1.39,1.39,0,0,0-.28.12L12,14.6a.86.86,0,0,1-.35.09c-.72,0-1.45,0-2.17,0a.39.39,0,0,1-.3-.2c0-.21.15-.23.31-.23h2c.06-.7-.21-1.12-.75-1.19s-1.05-.13-1.57-.18a4.34,4.34,0,0,1-2.13-.64A2.38,2.38,0,0,0,6.65,12,3.13,3.13,0,0,0,5.12,11.72ZM8.91,3c.12.32.19.56.29.79.39.82.53.89,1.43.92a1.37,1.37,0,0,0,1.57-1c.05-.16.12-.32.17-.48a1.19,1.19,0,0,0,0-.24.92.92,0,0,1-.87,0,.44.44,0,0,0-.37,0,.92.92,0,0,1-1,0,.34.34,0,0,0-.31,0A1,1,0,0,1,8.91,3Zm1.7,2.77,1.08-.18c.23,0,.3-.18.26-.39s-.21-.23-.38-.19a4.15,4.15,0,0,1-1.92,0c-.19,0-.35,0-.39.22a.28.28,0,0,0,.26.36Z"/><path class="cls-1" d="M10.89,7.36a4.34,4.34,0,0,1,.61.3c.07,0,.07.2.1.3a.71.71,0,0,1-.32,0,2.18,2.18,0,0,1-.4-.18c0,.45,0,.84,0,1.23,0,.08.14.19.23.22a1.15,1.15,0,0,1,.31,2,3,3,0,0,1-.54.29c-.08.14.12.49-.23.5s-.14-.34-.22-.46a8,8,0,0,1-.81-.33A.34.34,0,0,1,9.51,11c.06-.16.2-.12.34-.05s.35.15.6.26V10.11a1.33,1.33,0,0,1,0-.2.52.52,0,0,0-.35-.63.82.82,0,0,1-.51-.91,1,1,0,0,1,.66-.9.35.35,0,0,0,.19-.22c0-.15,0-.35.23-.34s.21.2.21.36S10.89,7.34,10.89,7.36Zm0,3.73a.8.8,0,0,0,.59-.84.6.6,0,0,0-.59-.56Zm-.46-3.22a.63.63,0,0,0-.42.66.48.48,0,0,0,.42.42Z"/></svg>