<svg id="Layer_1" data-name="Layer 1" xmlns="http://www.w3.org/2000/svg" viewBox="0 0 20 20"><defs><style>.cls-1{fill:#fff;}</style></defs><path class="cls-1" d="M6,13.24c0-.24,0-.44,0-.64a.8.8,0,0,1,.81-.86c1,0,2,0,3,0a.78.78,0,0,1,.82.85,6.44,6.44,0,0,1-.1.87s0,.08,0,.12.09.36.12.54a5.41,5.41,0,0,1,0,.57l.28,0c.94,0,1.88,0,2.81,0a.85.85,0,0,1,1,.95v.26a.83.83,0,0,1-.92.92c-.84,0-1.67.05-2.5,0s-1.43,0-2.14,0-1.43,0-2.15,0a4,4,0,0,1-.59-.1c-.05,0-.1,0-.14,0a5.23,5.23,0,0,1-1.85.13c-.52,0-1.05,0-1.58,0a.8.8,0,0,1-.91-.91,8,8,0,0,1,.1-.84c0-.06,0-.13,0-.2a6.34,6.34,0,0,1,0-1.06.72.72,0,0,1,.79-.59H6Zm-1.71,2.1H2.84c-.21,0-.32.08-.3.3a1.31,1.31,0,0,1,0,.28c0,.2.08.29.28.29,1,0,1.91,0,2.87,0,.2,0,.3-.08.28-.29a1,1,0,0,1,0-.25c0-.24-.07-.34-.32-.33Zm8.1,0h-1.2c-.52,0-.51,0-.51.52,0,.24,0,.35.31.35.93,0,1.86,0,2.78,0,.33,0,.33-.19.32-.42s0-.46-.31-.45Zm-4.07-2.1h1.2c.54,0,.53,0,.53-.55,0-.23-.08-.32-.31-.32-.93,0-1.86,0-2.79,0-.37,0-.31.24-.32.47s0,.41.32.4C7.38,13.22,7.83,13.24,8.29,13.24Zm0,2.1H7c-.38,0-.39,0-.39.43s0,.43.38.44h2.5c.55,0,.54,0,.54-.54,0-.25-.09-.34-.34-.33Zm-4.06-.63c.46,0,.92,0,1.39,0,.24,0,.35-.08.32-.33,0-.09,0-.2,0-.28s-.14-.22-.22-.22q-1.49,0-3,0c-.07,0-.18.13-.22.22s0,.21,0,.31.07.3.29.3C3.31,14.7,3.78,14.71,4.26,14.71Zm4.05-.84c-.48,0-1,0-1.43,0-.19,0-.29.06-.28.27s0,.21,0,.32.06.25.24.25q1.47,0,2.94,0c.18,0,.24-.09.24-.26a1,1,0,0,1,0-.25c0-.24-.07-.34-.32-.33C9.23,13.88,8.77,13.87,8.31,13.87Z"/><path class="cls-1" d="M9.35,10.17c.46,0,.86,0,1.25,0a1,1,0,0,1,.52.16,4,4,0,0,0,5.64-.85.58.58,0,0,1,.38-.22c.26,0,.33.29.15.55a4.44,4.44,0,0,1-2.46,1.77A4.6,4.6,0,0,1,11,11a1.54,1.54,0,0,0-.63-.19c-.46,0-.91,0-1.37,0s-.52-.19-.34-.57a2.14,2.14,0,0,1,.1-.22A2.54,2.54,0,0,0,9,8a4.54,4.54,0,0,1,3.71-5.42,4.63,4.63,0,0,1,5.33,3.79c0,.14,0,.29.05.44a.3.3,0,0,1-.3.37c-.21,0-.31-.13-.33-.34a4,4,0,0,0-7.9-.28,3.76,3.76,0,0,0,.23,2,.68.68,0,0,1,0,.66C9.64,9.52,9.52,9.81,9.35,10.17Z"/><path class="cls-1" d="M6.92,6.85v3.46c0,.48,0,.53-.52.53H4.59c-.42,0-.48-.06-.48-.47V6.85c-.33,0-.63,0-.93,0-.13,0-.33-.08-.36-.17a.53.53,0,0,1,.1-.42c.74-.88,1.49-1.75,2.24-2.62.29-.34.42-.34.7,0,.76.88,1.52,1.76,2.26,2.65a.49.49,0,0,1,.08.42c0,.09-.23.15-.36.16C7.55,6.86,7.25,6.85,6.92,6.85ZM5.51,4.18l-1.73,2h.36c.54,0,.6.07.61.6v3.38H6.27a1.93,1.93,0,0,0,0-.23c0-1.1,0-2.19,0-3.29,0-.34.11-.45.45-.46h.51Z"/><path class="cls-1" d="M11.87,9.55c-.1-.08-.23-.13-.26-.22a.37.37,0,0,1,0-.34c.28-.37.58-.72.88-1.07l2.28-2.71.13-.15c.14-.16.3-.24.48-.07s.13.33,0,.5L12.17,9.34A1.55,1.55,0,0,1,11.87,9.55Z"/><path class="cls-1" d="M12.26,7a1.12,1.12,0,1,1,0-2.24,1.12,1.12,0,1,1,0,2.24Zm0-.63a.48.48,0,0,0,.48-.51.47.47,0,0,0-.49-.47.49.49,0,1,0,0,1Z"/><path class="cls-1" d="M15.91,8.51a1.14,1.14,0,0,1-2.28,0,1.14,1.14,0,0,1,2.28,0Zm-.63,0a.51.51,0,0,0-1,0,.51.51,0,0,0,1,0Z"/><path class="cls-1" d="M18,8.36c-.13.09-.25.24-.38.23s-.26-.18-.27-.29.17-.29.27-.29.25.13.38.21Z"/></svg>