<svg id="Layer_1" data-name="Layer 1" xmlns="http://www.w3.org/2000/svg" viewBox="0 0 20 20"><defs><style>.cls-1{fill:#fff;}</style></defs><path class="cls-1" d="M4.26,13.69c.75-.24,1.3-.92,2.18-.84a5,5,0,0,1,0-6c-.26-.21-.52-.41-.76-.62s-.16-.35.06-.5c1.71-1.18,3.42-2.37,5.14-3.54a2.29,2.29,0,0,1,1.86-.28c1,.21,2,.41,3.07.6.25.05.52.11.63-.28a.58.58,0,0,1,.6-.39H18c.23,0,.32.11.32.34V6.35c0,.24-.11.33-.33.32h-.73c-.53,0-.71-.13-.91-.68a1.52,1.52,0,0,0-.48.17,3,3,0,0,1-1.7.68,4.92,4.92,0,0,1,0,6c.25.21.52.4.76.63s.16.34-.06.49c-1.71,1.18-3.42,2.37-5.14,3.54a2.32,2.32,0,0,1-1.89.27c-1-.21-2-.4-3-.59-.26,0-.53-.11-.63.28a.6.6,0,0,1-.61.39H2.59c-.23,0-.31-.11-.31-.33V13.33c0-.26.12-.35.36-.35h.7C3.87,13,4.05,13.12,4.26,13.69Zm2.82-4a3.2,3.2,0,1,0,3.48-3A3.21,3.21,0,0,0,7.08,9.7ZM6.15,6a1.23,1.23,0,0,0,1.63.12C8.35,5.77,8.92,5.38,9.47,5a.66.66,0,0,0,.23-.35.89.89,0,0,1,.77-.7c1.06,0,2.13,0,3.2,0,.08,0,.16.15.24.22a1.09,1.09,0,0,1-.25.23.69.69,0,0,1-.25,0H10.72c-.36,0-.57.2-.56.47s.21.43.56.44H12a.39.39,0,0,1,.39.24,1.36,1.36,0,0,0,.45.5,2.26,2.26,0,0,0,2.35,0l1.13-.63V3A7.11,7.11,0,0,1,15.6,3l-3-.58a2,2,0,0,0-1.65.33c-.71.51-1.44,1-2.16,1.5Zm8.24,7.6a1.21,1.21,0,0,0-1.59-.15q-.88.6-1.77,1.23a.48.48,0,0,0-.17.27.93.93,0,0,1-.95.76H7c-.17,0-.37,0-.37-.22s.21-.24.38-.25h2.7c.43,0,.67-.16.66-.46s-.22-.45-.64-.45-.81,0-1.21,0a.76.76,0,0,1-.36-.23c-.16-.15-.27-.38-.45-.5a2.36,2.36,0,0,0-2.38,0c-.34.22-.7.4-1.11.62v2.35c.25,0,.48,0,.7.07.93.17,1.85.33,2.76.54a2.41,2.41,0,0,0,2.12-.42c1.11-.82,2.27-1.58,3.4-2.37Zm3.37-11.3h-.61c-.24,0-.34.11-.34.35,0,1.06,0,2.13,0,3.2,0,.1.1.28.17.29a6.6,6.6,0,0,0,.77,0Zm-15,15h.63a.27.27,0,0,0,.32-.3c0-1.09,0-2.18,0-3.26a.41.41,0,0,0-.25-.29,3.15,3.15,0,0,0-.69,0Zm3.54-5.5.59-.35L6.54,10.1H5.86Zm7.89,0,.47-1.72H14l-.38,1.38ZM14,9.56h.61a4,4,0,0,0-.47-1.69l-.51.31ZM6.33,7.83,5.87,9.56h.67l.38-1.38Zm.33,4.37c.22.69.86.75,1.38,1l.16-.3L8.08,13l-1-1,.08-.11Zm7.23-4.74c-.23-.67-.84-.77-1.38-1l-.16.29.11-.08,1,1-.07.11ZM9.79,5.37l-1.3.89.14.21L10,6.1C10,5.85,10.13,5.56,9.79,5.37Zm.86,9,1.4-1-.13-.22-1.43.39Zm-2-1.18a2.55,2.55,0,0,0-.14.24.34.34,0,0,0,.24.45H10v-.32Zm1.93-7.41V6.1l1.37.37a1.93,1.93,0,0,0,.13-.21.33.33,0,0,0-.25-.48C11.38,5.77,11,5.78,10.55,5.78Zm2.85,6.14c-.34.31-.66.6-1,.91,0,.05,0,.17,0,.27a2.81,2.81,0,0,1,.74-.27c.42,0,.59-.3.76-.63ZM8.17,6.55a3.1,3.1,0,0,1-.75.28c-.42,0-.58.3-.78.62l.55.31c.16-.18.29-.35.43-.5S8,7,8.09,6.84,8.14,6.67,8.17,6.55Z"/><path class="cls-1" d="M10.53,7.8a4.43,4.43,0,0,1,.73.52,1.21,1.21,0,0,1,.23.57c0,.08-.12.2-.18.3-.09-.07-.24-.14-.27-.23a.79.79,0,0,0-1-.57A.67.67,0,0,0,9.52,9a.7.7,0,0,0,.63.58,3.07,3.07,0,0,1,.53.07,1.11,1.11,0,0,1,.83,1,1.07,1.07,0,0,1-.71,1.06c-.17.06-.3.11-.3.33a.28.28,0,0,1-.23.19.3.3,0,0,1-.22-.2c0-.21-.12-.25-.28-.32a1,1,0,0,1-.71-.92c0-.1.12-.2.18-.3.09.07.24.13.27.23a.79.79,0,0,0,1.05.57.67.67,0,0,0,.47-.61.7.7,0,0,0-.63-.58A4.51,4.51,0,0,1,9.87,10,1.13,1.13,0,0,1,9,9,1.07,1.07,0,0,1,9.75,8c.16-.06.3-.11.3-.33,0-.07.15-.2.23-.2s.17.13.23.21A.22.22,0,0,1,10.53,7.8Z"/><path class="cls-1" d="M17.3,3.16c-.11-.18-.23-.28-.22-.36a.38.38,0,0,1,.24-.22.32.32,0,0,1,.2.22C17.53,2.89,17.42,3,17.3,3.16Z"/><path class="cls-1" d="M3.61,16.86c-.18.11-.27.22-.36.22S3,16.94,3,16.87a.33.33,0,0,1,.21-.23C3.33,16.62,3.43,16.74,3.61,16.86Z"/></svg>