<svg id="Layer_1" data-name="Layer 1" xmlns="http://www.w3.org/2000/svg" viewBox="0 0 20 20"><defs><style>.cls-1{fill:#fff;}</style></defs><path class="cls-1" d="M16.2,10.92c.2-.46.38-.89.56-1.32A.92.92,0,0,1,18,9a.9.9,0,0,1,.42,1.31c-.35.78-.69,1.58-1.07,2.35a5,5,0,0,1-.69,1c-.48.51-1,1-1.48,1.48-.11.11-.19.2-.09.37a.68.68,0,0,1,.06.35c0,.67,0,1.33,0,2,0,.49-.21.7-.71.7H11.57c-.49,0-.68-.2-.68-.68,0-.67,0-1.33,0-2,0-.48.07-.59.5-.75a10.11,10.11,0,0,1,.18-1.36A2.48,2.48,0,0,1,13.06,12a6.45,6.45,0,0,0,1.35-.83A1.49,1.49,0,0,1,16.2,10.92Zm-.26.55a.74.74,0,0,0-1,0,9.59,9.59,0,0,1-1.68,1,2.29,2.29,0,0,0-1.21,2.61c.71,0,1.43,0,2.15,0a.51.51,0,0,0,.3-.17c.39-.38.74-.8,1.16-1.14,1.22-1,1.58-2.5,2.24-3.82a.32.32,0,0,0-.16-.45.32.32,0,0,0-.46.2,6.81,6.81,0,0,0-.31.74,7.27,7.27,0,0,1-2.3,3c-.07.08-.27,0-.41,0,0-.14,0-.32,0-.43a3.05,3.05,0,0,1,.43-.45Zm-1.4,4.23c-1,0-1.95,0-2.91,0-.07,0-.18.16-.18.26,0,.57,0,1.15,0,1.72,0,.23.09.28.3.28.58,0,1.17,0,1.75,0h1.06Z"/><path class="cls-1" d="M3.9,10.91a1.45,1.45,0,0,1,1.75.29A4.7,4.7,0,0,0,6.91,12a2.73,2.73,0,0,1,1.71,2.64v.49c.48.09.57.43.55.86,0,.63,0,1.26,0,1.89,0,.47-.2.68-.66.68H5.58a.59.59,0,0,1-.67-.68V15.81a.34.34,0,0,1,0-.1c.27-.42-.08-.62-.31-.86-2-2-1.44-1.2-2.63-3.8-.13-.27-.26-.53-.37-.81A.9.9,0,0,1,2.06,9a.89.89,0,0,1,1.19.48c.2.44.39.89.59,1.33C3.84,10.87,3.87,10.88,3.9,10.91Zm.24.56c.13.15.26.31.39.44L5.66,13c.15.15.3.32.11.51s-.35,0-.51-.09A7.68,7.68,0,0,1,2.82,9.94c0-.06,0-.11-.07-.16s-.22-.31-.44-.22-.26.29-.17.49.25.52.35.79A9.09,9.09,0,0,0,5,14.44a2,2,0,0,0,1.79.72,9.23,9.23,0,0,1,1.29,0,5.5,5.5,0,0,0,0-.82A1.94,1.94,0,0,0,7,12.7a9,9,0,0,1-2-1.26A.66.66,0,0,0,4.14,11.47Zm1.37,4.24V18h3.1c0-.71,0-1.38,0-2a.26.26,0,0,0-.16-.19C7.48,15.7,6.51,15.71,5.51,15.71Z"/><path class="cls-1" d="M14.56,6.09v2a3.05,3.05,0,0,1-1.32,2.55c-.92.68-1.85,1.34-2.77,2-.37.26-.52.26-.9,0l-2.74-2A3.06,3.06,0,0,1,5.49,8.1c0-1.43,0-2.86,0-4.29a.46.46,0,0,1,.31-.48c1.33-.57,2.65-1.16,4-1.73a.69.69,0,0,1,.49,0c1.33.56,2.64,1.14,4,1.71a.48.48,0,0,1,.33.51C14.55,4.58,14.56,5.33,14.56,6.09ZM10,12.29c1-.73,2-1.43,3-2.16a2.43,2.43,0,0,0,1-2c0-1.34,0-2.67,0-4a.32.32,0,0,0-.23-.34L10.23,2.2a.55.55,0,0,0-.4,0L6.27,3.75A.32.32,0,0,0,6,4.09c0,1.34,0,2.69,0,4a2.47,2.47,0,0,0,1,2C8,10.87,9,11.57,10,12.29Z"/><path class="cls-1" d="M12.5,17.2c-.27-.07-.48-.09-.47-.37s.21-.27.41-.28.44.06.41.31S12.62,17.09,12.5,17.2Z"/><path class="cls-1" d="M7.69,17.2c-.29-.06-.5-.1-.49-.37s.2-.28.41-.28.44,0,.4.3S7.8,17.09,7.69,17.2Z"/><path class="cls-1" d="M13.43,6.42c0,.56,0,1.11,0,1.67a2,2,0,0,1-.83,1.65c-.76.56-1.53,1.1-2.29,1.65a.42.42,0,0,1-.57,0L7.45,9.73a1.92,1.92,0,0,1-.82-1.62c0-1.18,0-2.37,0-3.56a.44.44,0,0,1,.32-.47c.94-.4,1.88-.83,2.83-1.23a.8.8,0,0,1,.53,0c.94.4,1.88.83,2.82,1.23a.43.43,0,0,1,.31.48C13.42,5.18,13.43,5.8,13.43,6.42Zm-.56,0c0-.53,0-1.06,0-1.59a.34.34,0,0,0-.23-.38l-2.41-1a.63.63,0,0,0-.43,0l-2.4,1a.31.31,0,0,0-.23.34c0,1.07,0,2.15,0,3.22A1.48,1.48,0,0,0,7.82,9.3l2,1.46a.26.26,0,0,0,.37,0l2-1.48A1.48,1.48,0,0,0,12.87,8Z"/><path class="cls-1" d="M9.39,8.2l1.84-2.75.18-.28c.11-.15.22-.34.45-.2s.15.33,0,.51l-1.07,1.6L9.77,8.66c-.2.29-.31.31-.59.1l-.93-.7c-.16-.12-.31-.26-.14-.46s.33-.11.49,0S9.11,8,9.39,8.2Z"/></svg>