<svg id="Layer_1" data-name="Layer 1" xmlns="http://www.w3.org/2000/svg" viewBox="0 0 20 20"><defs><style>.cls-1{fill:#fff;}</style></defs><path class="cls-1" d="M14.8,7.08a5.86,5.86,0,0,1,.82,4.56,5.75,5.75,0,0,1-1.88,3.13,5.92,5.92,0,0,1-7.2.41c-.34.57-.68,1.14-1,1.7a2.2,2.2,0,0,1-.21.32.6.6,0,0,1-1,0A14.18,14.18,0,0,1,2.57,14a2.28,2.28,0,0,1,1.21-2.88A.39.39,0,0,0,4,10.63a5.89,5.89,0,0,1,7.23-6,8.19,8.19,0,0,1,.15-1.15,2.87,2.87,0,0,1,3.05-2.1A2.91,2.91,0,0,1,17.06,4a.49.49,0,0,1,0,.24c-.06.09-.15.23-.24.23s-.22-.11-.25-.21-.05-.42-.11-.63a2.36,2.36,0,0,0-2.78-1.72,2.41,2.41,0,0,0-1.86,2.65,2.38,2.38,0,0,0,2.57,2,2.33,2.33,0,0,0,1.83-1.15.61.61,0,0,1,.32-.26c.2,0,.28.22.16.46A3,3,0,0,1,14.8,7.08Zm-8,7.58a5.33,5.33,0,0,0,6,.21,5.18,5.18,0,0,0,2.44-4.76,1.19,1.19,0,0,1-1.48-.35A8.91,8.91,0,0,1,13,8.15c0-.08.11-.23.17-.35.11.08.26.14.31.24.18.4.32.83.5,1.23a.69.69,0,0,0,.81.41c.26-.06.45-.2.32-.5-.26-.62-.52-1.23-.8-1.83A.58.58,0,0,0,14,7.12a2.88,2.88,0,0,1-2.41-1.7c0-.09-.1-.2-.18-.23A4.39,4.39,0,0,0,9.68,5l.43.51a.81.81,0,0,1,0,1.19c-.24.26-.5.5-.75.75a1.18,1.18,0,0,1-1,.41,2.47,2.47,0,0,0-1.93.58c-.43.35-.88.1-.91-.47,0-.17,0-.35,0-.57a4.68,4.68,0,0,0-.87,3.42A2.4,2.4,0,0,1,6.89,12,2.56,2.56,0,0,1,6.76,14.66ZM4.81,17a15.44,15.44,0,0,0,1.75-3.23A1.78,1.78,0,0,0,6,11.72a1.87,1.87,0,0,0-2.14-.1A1.82,1.82,0,0,0,3,13.46,13.45,13.45,0,0,0,4.81,17ZM9.09,5A4.43,4.43,0,0,0,7,5.89a1.84,1.84,0,0,0-.88,2.19,2.73,2.73,0,0,1,2.36-.73A.91.91,0,0,0,9,7.1c.26-.22.48-.48.73-.72a.36.36,0,0,0,0-.56C9.5,5.59,9.33,5.35,9.09,5Z"/><path class="cls-1" d="M7.23,18.09a1.65,1.65,0,0,1,.16.4c0,.1,0,.27-.11.31A.32.32,0,0,1,7,18.72a9.1,9.1,0,0,1-.48-1c0-.07.06-.25.14-.3a6,6,0,0,1,.92-.45c.09,0,.23,0,.35.07a1.18,1.18,0,0,1-.14.37,1.82,1.82,0,0,1-.38.22A6.83,6.83,0,0,0,10,18a7.47,7.47,0,0,0,6.72-4.27A7.41,7.41,0,0,0,17,7.4l-.06-.16c-.08-.17-.14-.38.1-.44.09,0,.3.12.35.24a7.18,7.18,0,0,1,.71,3.27,8,8,0,0,1-4.6,7.38,7.89,7.89,0,0,1-5.86.51Z"/><path class="cls-1" d="M9.92,2.16a1.58,1.58,0,0,1-.28-.35.36.36,0,0,1,0-.32.33.33,0,0,1,.32,0,7.48,7.48,0,0,1,.76.83.42.42,0,0,1-.07.38c-.19.23-.43.43-.65.65s-.28.22-.4,0,0-.28.05-.41.16-.12.24-.18l-.05-.13a12.67,12.67,0,0,0-1.38.16A7.55,7.55,0,0,0,3.13,6.74s0,.1-.06.12S2.82,7,2.69,7c0-.14-.12-.32-.07-.4A12.81,12.81,0,0,1,3.84,4.88,7.93,7.93,0,0,1,9.7,2.18Z"/><path class="cls-1" d="M13.58,4.88,13.9,5c.22.08.45.09.55-.16s-.1-.34-.3-.43a2.57,2.57,0,0,1-.56-.31.66.66,0,0,1-.07-.82A3,3,0,0,1,14,2.71c.06-.06.32,0,.32,0,0,.33.67.27.44.71,0,.07-.21.08-.32.08s-.24-.06-.36,0a.24.24,0,0,0-.15.16.22.22,0,0,0,.11.18,3.3,3.3,0,0,0,.43.19.79.79,0,0,1,.18,1.4,1.21,1.21,0,0,0-.27.32c-.11.15-.28.24-.38.07s-.33-.28-.5-.41a.4.4,0,0,1-.12-.31C13.39,5,13.51,4.94,13.58,4.88Z"/><path class="cls-1" d="M1.67,10.15c.11-.6.24-1.38.4-2.16a.58.58,0,0,1,.22-.32.28.28,0,0,1,.23,0,.57.57,0,0,1,0,.38,7.51,7.51,0,0,0-.31,2.62c0,.31,0,.61.09.92s0,.37-.21.37-.26-.17-.28-.29C1.77,11.27,1.74,10.8,1.67,10.15Z"/><path class="cls-1" d="M7.84,13.15c0-.36,0-.73,0-1.09a.79.79,0,0,0-.34-.73A1.17,1.17,0,0,1,7.27,9.5c.17-.25.34-.49.52-.73a1.28,1.28,0,0,1,1.81-.3c.9.61,1.79,1.25,2.68,1.88a.94.94,0,0,1,.23,1.36A18,18,0,0,1,11.3,13.4a6.25,6.25,0,0,1-1.05.86c-.34.26-.71.5-1.06.74a.85.85,0,0,1-1,.1.86.86,0,0,1-.43-.89l.06-1.06ZM8.39,13H8.32V14.3c0,.36.25.5.54.3.58-.39,1.15-.79,1.71-1.19A1.76,1.76,0,0,0,11,13c.38-.51.75-1,1.11-1.55a.46.46,0,0,0-.11-.71c-.88-.64-1.76-1.26-2.64-1.88a.76.76,0,0,0-1.11.21c-.18.23-.35.48-.52.72a.68.68,0,0,0,.17,1.1A1.24,1.24,0,0,1,8.4,12C8.38,12.36,8.39,12.7,8.39,13Z"/><path class="cls-1" d="M6.14,13.28a1.33,1.33,0,1,1-2.66,0,1.33,1.33,0,0,1,2.66,0Zm-1.33.8a.83.83,0,0,0,.83-.82.85.85,0,0,0-.83-.82.83.83,0,0,0-.82.83A.8.8,0,0,0,4.81,14.08Z"/></svg>